999
Created by Wolfram Mathematica 8.0 : www.wolfram.com
0
SECTION
2
HEADER
9
$ACADVER
1
AC1009
0
ENDSEC
0
SECTION
2
ENTITIES
0
LINE
8
0
10
0.
20
0.
30
0.
11
15.
21
0.
31
0.
0
LINE
8
0
10
15.
20
0.
30
0.
11
15.
21
10.
31
0.
0
LINE
8
0
10
15.
20
10.
30
0.
11
0.
21
10.
31
0.
0
LINE
8
0
10
0.
20
10.
30
0.
11
0.
21
0.
31
0.
0
LINE
8
0
10
1.2825453713852306
20
1.46875
30
0.
11
1.2174546286147694
21
1.46875
31
0.
0
LINE
8
0
10
1.0768296286147694
20
1.3875601183952089
30
0.
11
1.0442842572295388
21
1.3311898816047911
31
0.
0
LINE
8
0
10
1.0442842572295388
20
1.1688101183952089
30
0.
11
1.0768296286147694
21
1.1124398816047911
31
0.
0
LINE
8
0
10
1.2174546286147694
20
1.03125
30
0.
11
1.2825453713852306
21
1.03125
31
0.
0
LINE
8
0
10
1.4557157427704612
20
1.3311898816047911
30
0.
11
1.4231703713852306
21
1.3875601183952089
31
0.
0
LINE
8
0
10
1.4231703713852306
20
1.1124398816047911
30
0.
11
1.4557157427704612
21
1.1688101183952089
31
0.
0
LINE
8
0
10
1.4231703713852306
20
1.3875601183952089
30
0.
11
1.4231703713852306
21
1.3875601183952089
31
0.
0
LINE
8
0
10
1.2825453713852306
20
1.46875
30
0.
11
1.2825453713852306
21
1.46875
31
0.
0
LINE
8
0
10
1.2174546286147694
20
1.46875
30
0.
11
1.2174546286147694
21
1.46875
31
0.
0
LINE
8
0
10
1.0768296286147694
20
1.3875601183952089
30
0.
11
1.0768296286147694
21
1.3875601183952089
31
0.
0
LINE
8
0
10
1.0442842572295388
20
1.3311898816047911
30
0.
11
1.0442842572295388
21
1.3311898816047911
31
0.
0
LINE
8
0
10
1.0442842572295388
20
1.1688101183952089
30
0.
11
1.0442842572295388
21
1.1688101183952089
31
0.
0
LINE
8
0
10
1.0768296286147694
20
1.1124398816047911
30
0.
11
1.0768296286147694
21
1.1124398816047911
31
0.
0
LINE
8
0
10
1.2174546286147694
20
1.03125
30
0.
11
1.2174546286147694
21
1.03125
31
0.
0
LINE
8
0
10
1.2825453713852306
20
1.03125
30
0.
11
1.2825453713852306
21
1.03125
31
0.
0
LINE
8
0
10
1.4231703713852306
20
1.1124398816047911
30
0.
11
1.4231703713852306
21
1.1124398816047911
31
0.
0
LINE
8
0
10
1.4557157427704612
20
1.1688101183952089
30
0.
11
1.4557157427704612
21
1.1688101183952089
31
0.
0
LINE
8
0
10
1.4557157427704612
20
1.3311898816047911
30
0.
11
1.4557157427704612
21
1.3311898816047911
31
0.
0
LINE
8
0
10
1.2825453713852306
20
2.71875
30
0.
11
1.2174546286147694
21
2.71875
31
0.
0
LINE
8
0
10
1.0768296286147694
20
2.637560118395209
30
0.
11
1.0442842572295388
21
2.581189881604791
31
0.
0
LINE
8
0
10
1.0442842572295388
20
2.418810118395209
30
0.
11
1.0768296286147694
21
2.362439881604791
31
0.
0
LINE
8
0
10
1.2174546286147694
20
2.28125
30
0.
11
1.2825453713852306
21
2.28125
31
0.
0
LINE
8
0
10
1.4557157427704612
20
2.581189881604791
30
0.
11
1.4231703713852306
21
2.637560118395209
31
0.
0
LINE
8
0
10
1.4231703713852306
20
2.362439881604791
30
0.
11
1.4557157427704612
21
2.418810118395209
31
0.
0
LINE
8
0
10
1.4231703713852306
20
2.637560118395209
30
0.
11
1.4231703713852306
21
2.637560118395209
31
0.
0
LINE
8
0
10
1.2825453713852306
20
2.71875
30
0.
11
1.2825453713852306
21
2.71875
31
0.
0
LINE
8
0
10
1.2174546286147694
20
2.71875
30
0.
11
1.2174546286147694
21
2.71875
31
0.
0
LINE
8
0
10
1.0768296286147694
20
2.637560118395209
30
0.
11
1.0768296286147694
21
2.637560118395209
31
0.
0
LINE
8
0
10
1.0442842572295388
20
2.581189881604791
30
0.
11
1.0442842572295388
21
2.581189881604791
31
0.
0
LINE
8
0
10
1.0442842572295388
20
2.418810118395209
30
0.
11
1.0442842572295388
21
2.418810118395209
31
0.
0
LINE
8
0
10
1.0768296286147694
20
2.362439881604791
30
0.
11
1.0768296286147694
21
2.362439881604791
31
0.
0
LINE
8
0
10
1.2174546286147694
20
2.28125
30
0.
11
1.2174546286147694
21
2.28125
31
0.
0
LINE
8
0
10
1.2825453713852306
20
2.28125
30
0.
11
1.2825453713852306
21
2.28125
31
0.
0
LINE
8
0
10
1.4231703713852306
20
2.362439881604791
30
0.
11
1.4231703713852306
21
2.362439881604791
31
0.
0
LINE
8
0
10
1.4557157427704612
20
2.418810118395209
30
0.
11
1.4557157427704612
21
2.418810118395209
31
0.
0
LINE
8
0
10
1.4557157427704612
20
2.581189881604791
30
0.
11
1.4557157427704612
21
2.581189881604791
31
0.
0
LINE
8
0
10
1.2825453713852306
20
3.96875
30
0.
11
1.2174546286147694
21
3.96875
31
0.
0
LINE
8
0
10
1.0768296286147694
20
3.887560118395209
30
0.
11
1.0442842572295388
21
3.831189881604791
31
0.
0
LINE
8
0
10
1.0442842572295388
20
3.668810118395209
30
0.
11
1.0768296286147694
21
3.612439881604791
31
0.
0
LINE
8
0
10
1.2174546286147694
20
3.53125
30
0.
11
1.2825453713852306
21
3.53125
31
0.
0
LINE
8
0
10
1.4557157427704612
20
3.831189881604791
30
0.
11
1.4231703713852306
21
3.887560118395209
31
0.
0
LINE
8
0
10
1.4231703713852306
20
3.612439881604791
30
0.
11
1.4557157427704612
21
3.668810118395209
31
0.
0
LINE
8
0
10
1.4231703713852306
20
3.887560118395209
30
0.
11
1.4231703713852306
21
3.887560118395209
31
0.
0
LINE
8
0
10
1.2825453713852306
20
3.96875
30
0.
11
1.2825453713852306
21
3.96875
31
0.
0
LINE
8
0
10
1.2174546286147694
20
3.96875
30
0.
11
1.2174546286147694
21
3.96875
31
0.
0
LINE
8
0
10
1.0768296286147694
20
3.887560118395209
30
0.
11
1.0768296286147694
21
3.887560118395209
31
0.
0
LINE
8
0
10
1.0442842572295388
20
3.831189881604791
30
0.
11
1.0442842572295388
21
3.831189881604791
31
0.
0
LINE
8
0
10
1.0442842572295388
20
3.668810118395209
30
0.
11
1.0442842572295388
21
3.668810118395209
31
0.
0
LINE
8
0
10
1.0768296286147694
20
3.612439881604791
30
0.
11
1.0768296286147694
21
3.612439881604791
31
0.
0
LINE
8
0
10
1.2174546286147694
20
3.53125
30
0.
11
1.2174546286147694
21
3.53125
31
0.
0
LINE
8
0
10
1.2825453713852306
20
3.53125
30
0.
11
1.2825453713852306
21
3.53125
31
0.
0
LINE
8
0
10
1.4231703713852306
20
3.612439881604791
30
0.
11
1.4231703713852306
21
3.612439881604791
31
0.
0
LINE
8
0
10
1.4557157427704612
20
3.668810118395209
30
0.
11
1.4557157427704612
21
3.668810118395209
31
0.
0
LINE
8
0
10
1.4557157427704612
20
3.831189881604791
30
0.
11
1.4557157427704612
21
3.831189881604791
31
0.
0
LINE
8
0
10
1.2825453713852306
20
5.21875
30
0.
11
1.2174546286147694
21
5.21875
31
0.
0
LINE
8
0
10
1.0768296286147694
20
5.137560118395209
30
0.
11
1.0442842572295388
21
5.081189881604791
31
0.
0
LINE
8
0
10
1.0442842572295388
20
4.918810118395209
30
0.
11
1.0768296286147694
21
4.862439881604791
31
0.
0
LINE
8
0
10
1.2174546286147694
20
4.78125
30
0.
11
1.2825453713852306
21
4.78125
31
0.
0
LINE
8
0
10
1.4557157427704612
20
5.081189881604791
30
0.
11
1.4231703713852306
21
5.137560118395209
31
0.
0
LINE
8
0
10
1.4231703713852306
20
4.862439881604791
30
0.
11
1.4557157427704612
21
4.918810118395209
31
0.
0
LINE
8
0
10
1.4231703713852306
20
5.137560118395209
30
0.
11
1.4231703713852306
21
5.137560118395209
31
0.
0
LINE
8
0
10
1.2825453713852306
20
5.21875
30
0.
11
1.2825453713852306
21
5.21875
31
0.
0
LINE
8
0
10
1.2174546286147694
20
5.21875
30
0.
11
1.2174546286147694
21
5.21875
31
0.
0
LINE
8
0
10
1.0768296286147694
20
5.137560118395209
30
0.
11
1.0768296286147694
21
5.137560118395209
31
0.
0
LINE
8
0
10
1.0442842572295388
20
5.081189881604791
30
0.
11
1.0442842572295388
21
5.081189881604791
31
0.
0
LINE
8
0
10
1.0442842572295388
20
4.918810118395209
30
0.
11
1.0442842572295388
21
4.918810118395209
31
0.
0
LINE
8
0
10
1.0768296286147694
20
4.862439881604791
30
0.
11
1.0768296286147694
21
4.862439881604791
31
0.
0
LINE
8
0
10
1.2174546286147694
20
4.78125
30
0.
11
1.2174546286147694
21
4.78125
31
0.
0
LINE
8
0
10
1.2825453713852306
20
4.78125
30
0.
11
1.2825453713852306
21
4.78125
31
0.
0
LINE
8
0
10
1.4231703713852306
20
4.862439881604791
30
0.
11
1.4231703713852306
21
4.862439881604791
31
0.
0
LINE
8
0
10
1.4557157427704612
20
4.918810118395209
30
0.
11
1.4557157427704612
21
4.918810118395209
31
0.
0
LINE
8
0
10
1.4557157427704612
20
5.081189881604791
30
0.
11
1.4557157427704612
21
5.081189881604791
31
0.
0
LINE
8
0
10
1.2825453713852306
20
6.46875
30
0.
11
1.2174546286147694
21
6.46875
31
0.
0
LINE
8
0
10
1.0768296286147694
20
6.387560118395209
30
0.
11
1.0442842572295388
21
6.331189881604791
31
0.
0
LINE
8
0
10
1.0442842572295388
20
6.168810118395209
30
0.
11
1.0768296286147694
21
6.112439881604791
31
0.
0
LINE
8
0
10
1.2174546286147694
20
6.03125
30
0.
11
1.2825453713852306
21
6.03125
31
0.
0
LINE
8
0
10
1.4557157427704612
20
6.331189881604791
30
0.
11
1.4231703713852306
21
6.387560118395209
31
0.
0
LINE
8
0
10
1.4231703713852306
20
6.112439881604791
30
0.
11
1.4557157427704612
21
6.168810118395209
31
0.
0
LINE
8
0
10
1.4231703713852306
20
6.387560118395209
30
0.
11
1.4231703713852306
21
6.387560118395209
31
0.
0
LINE
8
0
10
1.2825453713852306
20
6.46875
30
0.
11
1.2825453713852306
21
6.46875
31
0.
0
LINE
8
0
10
1.2174546286147694
20
6.46875
30
0.
11
1.2174546286147694
21
6.46875
31
0.
0
LINE
8
0
10
1.0768296286147694
20
6.387560118395209
30
0.
11
1.0768296286147694
21
6.387560118395209
31
0.
0
LINE
8
0
10
1.0442842572295388
20
6.331189881604791
30
0.
11
1.0442842572295388
21
6.331189881604791
31
0.
0
LINE
8
0
10
1.0442842572295388
20
6.168810118395209
30
0.
11
1.0442842572295388
21
6.168810118395209
31
0.
0
LINE
8
0
10
1.0768296286147694
20
6.112439881604791
30
0.
11
1.0768296286147694
21
6.112439881604791
31
0.
0
LINE
8
0
10
1.2174546286147694
20
6.03125
30
0.
11
1.2174546286147694
21
6.03125
31
0.
0
LINE
8
0
10
1.2825453713852306
20
6.03125
30
0.
11
1.2825453713852306
21
6.03125
31
0.
0
LINE
8
0
10
1.4231703713852306
20
6.112439881604791
30
0.
11
1.4231703713852306
21
6.112439881604791
31
0.
0
LINE
8
0
10
1.4557157427704612
20
6.168810118395209
30
0.
11
1.4557157427704612
21
6.168810118395209
31
0.
0
LINE
8
0
10
1.4557157427704612
20
6.331189881604791
30
0.
11
1.4557157427704612
21
6.331189881604791
31
0.
0
LINE
8
0
10
1.2825453713852306
20
7.71875
30
0.
11
1.2174546286147694
21
7.71875
31
0.
0
LINE
8
0
10
1.0768296286147694
20
7.637560118395209
30
0.
11
1.0442842572295388
21
7.581189881604791
31
0.
0
LINE
8
0
10
1.0442842572295388
20
7.418810118395209
30
0.
11
1.0768296286147694
21
7.362439881604791
31
0.
0
LINE
8
0
10
1.2174546286147694
20
7.28125
30
0.
11
1.2825453713852306
21
7.28125
31
0.
0
LINE
8
0
10
1.4557157427704612
20
7.581189881604791
30
0.
11
1.4231703713852306
21
7.637560118395209
31
0.
0
LINE
8
0
10
1.4231703713852306
20
7.362439881604791
30
0.
11
1.4557157427704612
21
7.418810118395209
31
0.
0
LINE
8
0
10
1.4231703713852306
20
7.637560118395209
30
0.
11
1.4231703713852306
21
7.637560118395209
31
0.
0
LINE
8
0
10
1.2825453713852306
20
7.71875
30
0.
11
1.2825453713852306
21
7.71875
31
0.
0
LINE
8
0
10
1.2174546286147694
20
7.71875
30
0.
11
1.2174546286147694
21
7.71875
31
0.
0
LINE
8
0
10
1.0768296286147694
20
7.637560118395209
30
0.
11
1.0768296286147694
21
7.637560118395209
31
0.
0
LINE
8
0
10
1.0442842572295388
20
7.581189881604791
30
0.
11
1.0442842572295388
21
7.581189881604791
31
0.
0
LINE
8
0
10
1.0442842572295388
20
7.418810118395209
30
0.
11
1.0442842572295388
21
7.418810118395209
31
0.
0
LINE
8
0
10
1.0768296286147694
20
7.362439881604791
30
0.
11
1.0768296286147694
21
7.362439881604791
31
0.
0
LINE
8
0
10
1.2174546286147694
20
7.28125
30
0.
11
1.2174546286147694
21
7.28125
31
0.
0
LINE
8
0
10
1.2825453713852306
20
7.28125
30
0.
11
1.2825453713852306
21
7.28125
31
0.
0
LINE
8
0
10
1.4231703713852306
20
7.362439881604791
30
0.
11
1.4231703713852306
21
7.362439881604791
31
0.
0
LINE
8
0
10
1.4557157427704612
20
7.418810118395209
30
0.
11
1.4557157427704612
21
7.418810118395209
31
0.
0
LINE
8
0
10
1.4557157427704612
20
7.581189881604791
30
0.
11
1.4557157427704612
21
7.581189881604791
31
0.
0
LINE
8
0
10
1.2825453713852306
20
8.96875
30
0.
11
1.2174546286147694
21
8.96875
31
0.
0
LINE
8
0
10
1.0768296286147694
20
8.887560118395209
30
0.
11
1.0442842572295388
21
8.831189881604791
31
0.
0
LINE
8
0
10
1.0442842572295388
20
8.668810118395209
30
0.
11
1.0768296286147694
21
8.612439881604791
31
0.
0
LINE
8
0
10
1.2174546286147694
20
8.53125
30
0.
11
1.2825453713852306
21
8.53125
31
0.
0
LINE
8
0
10
1.4557157427704612
20
8.831189881604791
30
0.
11
1.4231703713852306
21
8.887560118395209
31
0.
0
LINE
8
0
10
1.4231703713852306
20
8.612439881604791
30
0.
11
1.4557157427704612
21
8.668810118395209
31
0.
0
LINE
8
0
10
1.4231703713852306
20
8.887560118395209
30
0.
11
1.4231703713852306
21
8.887560118395209
31
0.
0
LINE
8
0
10
1.2825453713852306
20
8.96875
30
0.
11
1.2825453713852306
21
8.96875
31
0.
0
LINE
8
0
10
1.2174546286147694
20
8.96875
30
0.
11
1.2174546286147694
21
8.96875
31
0.
0
LINE
8
0
10
1.0768296286147694
20
8.887560118395209
30
0.
11
1.0768296286147694
21
8.887560118395209
31
0.
0
LINE
8
0
10
1.0442842572295388
20
8.831189881604791
30
0.
11
1.0442842572295388
21
8.831189881604791
31
0.
0
LINE
8
0
10
1.0442842572295388
20
8.668810118395209
30
0.
11
1.0442842572295388
21
8.668810118395209
31
0.
0
LINE
8
0
10
1.0768296286147694
20
8.612439881604791
30
0.
11
1.0768296286147694
21
8.612439881604791
31
0.
0
LINE
8
0
10
1.2174546286147694
20
8.53125
30
0.
11
1.2174546286147694
21
8.53125
31
0.
0
LINE
8
0
10
1.2825453713852306
20
8.53125
30
0.
11
1.2825453713852306
21
8.53125
31
0.
0
LINE
8
0
10
1.4231703713852306
20
8.612439881604791
30
0.
11
1.4231703713852306
21
8.612439881604791
31
0.
0
LINE
8
0
10
1.4557157427704612
20
8.668810118395209
30
0.
11
1.4557157427704612
21
8.668810118395209
31
0.
0
LINE
8
0
10
1.4557157427704612
20
8.831189881604791
30
0.
11
1.4557157427704612
21
8.831189881604791
31
0.
0
LINE
8
0
10
2.532545371385231
20
1.46875
30
0.
11
2.467454628614769
21
1.46875
31
0.
0
LINE
8
0
10
2.326829628614769
20
1.3875601183952089
30
0.
11
2.2942842572295388
21
1.3311898816047911
31
0.
0
LINE
8
0
10
2.2942842572295388
20
1.1688101183952089
30
0.
11
2.326829628614769
21
1.1124398816047911
31
0.
0
LINE
8
0
10
2.467454628614769
20
1.03125
30
0.
11
2.532545371385231
21
1.03125
31
0.
0
LINE
8
0
10
2.7057157427704612
20
1.3311898816047911
30
0.
11
2.673170371385231
21
1.3875601183952089
31
0.
0
LINE
8
0
10
2.673170371385231
20
1.1124398816047911
30
0.
11
2.7057157427704612
21
1.1688101183952089
31
0.
0
LINE
8
0
10
2.673170371385231
20
1.3875601183952089
30
0.
11
2.673170371385231
21
1.3875601183952089
31
0.
0
LINE
8
0
10
2.532545371385231
20
1.46875
30
0.
11
2.532545371385231
21
1.46875
31
0.
0
LINE
8
0
10
2.467454628614769
20
1.46875
30
0.
11
2.467454628614769
21
1.46875
31
0.
0
LINE
8
0
10
2.326829628614769
20
1.3875601183952089
30
0.
11
2.326829628614769
21
1.3875601183952089
31
0.
0
LINE
8
0
10
2.2942842572295388
20
1.3311898816047911
30
0.
11
2.2942842572295388
21
1.3311898816047911
31
0.
0
LINE
8
0
10
2.2942842572295388
20
1.1688101183952089
30
0.
11
2.2942842572295388
21
1.1688101183952089
31
0.
0
LINE
8
0
10
2.326829628614769
20
1.1124398816047911
30
0.
11
2.326829628614769
21
1.1124398816047911
31
0.
0
LINE
8
0
10
2.467454628614769
20
1.03125
30
0.
11
2.467454628614769
21
1.03125
31
0.
0
LINE
8
0
10
2.532545371385231
20
1.03125
30
0.
11
2.532545371385231
21
1.03125
31
0.
0
LINE
8
0
10
2.673170371385231
20
1.1124398816047911
30
0.
11
2.673170371385231
21
1.1124398816047911
31
0.
0
LINE
8
0
10
2.7057157427704612
20
1.1688101183952089
30
0.
11
2.7057157427704612
21
1.1688101183952089
31
0.
0
LINE
8
0
10
2.7057157427704612
20
1.3311898816047911
30
0.
11
2.7057157427704612
21
1.3311898816047911
31
0.
0
LINE
8
0
10
2.532545371385231
20
2.71875
30
0.
11
2.467454628614769
21
2.71875
31
0.
0
LINE
8
0
10
2.326829628614769
20
2.637560118395209
30
0.
11
2.2942842572295388
21
2.581189881604791
31
0.
0
LINE
8
0
10
2.2942842572295388
20
2.418810118395209
30
0.
11
2.326829628614769
21
2.362439881604791
31
0.
0
LINE
8
0
10
2.467454628614769
20
2.28125
30
0.
11
2.532545371385231
21
2.28125
31
0.
0
LINE
8
0
10
2.7057157427704612
20
2.581189881604791
30
0.
11
2.673170371385231
21
2.637560118395209
31
0.
0
LINE
8
0
10
2.673170371385231
20
2.362439881604791
30
0.
11
2.7057157427704612
21
2.418810118395209
31
0.
0
LINE
8
0
10
2.673170371385231
20
2.637560118395209
30
0.
11
2.673170371385231
21
2.637560118395209
31
0.
0
LINE
8
0
10
2.532545371385231
20
2.71875
30
0.
11
2.532545371385231
21
2.71875
31
0.
0
LINE
8
0
10
2.467454628614769
20
2.71875
30
0.
11
2.467454628614769
21
2.71875
31
0.
0
LINE
8
0
10
2.326829628614769
20
2.637560118395209
30
0.
11
2.326829628614769
21
2.637560118395209
31
0.
0
LINE
8
0
10
2.2942842572295388
20
2.581189881604791
30
0.
11
2.2942842572295388
21
2.581189881604791
31
0.
0
LINE
8
0
10
2.2942842572295388
20
2.418810118395209
30
0.
11
2.2942842572295388
21
2.418810118395209
31
0.
0
LINE
8
0
10
2.326829628614769
20
2.362439881604791
30
0.
11
2.326829628614769
21
2.362439881604791
31
0.
0
LINE
8
0
10
2.467454628614769
20
2.28125
30
0.
11
2.467454628614769
21
2.28125
31
0.
0
LINE
8
0
10
2.532545371385231
20
2.28125
30
0.
11
2.532545371385231
21
2.28125
31
0.
0
LINE
8
0
10
2.673170371385231
20
2.362439881604791
30
0.
11
2.673170371385231
21
2.362439881604791
31
0.
0
LINE
8
0
10
2.7057157427704612
20
2.418810118395209
30
0.
11
2.7057157427704612
21
2.418810118395209
31
0.
0
LINE
8
0
10
2.7057157427704612
20
2.581189881604791
30
0.
11
2.7057157427704612
21
2.581189881604791
31
0.
0
LINE
8
0
10
2.532545371385231
20
3.96875
30
0.
11
2.467454628614769
21
3.96875
31
0.
0
LINE
8
0
10
2.326829628614769
20
3.887560118395209
30
0.
11
2.2942842572295388
21
3.831189881604791
31
0.
0
LINE
8
0
10
2.2942842572295388
20
3.668810118395209
30
0.
11
2.326829628614769
21
3.612439881604791
31
0.
0
LINE
8
0
10
2.467454628614769
20
3.53125
30
0.
11
2.532545371385231
21
3.53125
31
0.
0
LINE
8
0
10
2.7057157427704612
20
3.831189881604791
30
0.
11
2.673170371385231
21
3.887560118395209
31
0.
0
LINE
8
0
10
2.673170371385231
20
3.612439881604791
30
0.
11
2.7057157427704612
21
3.668810118395209
31
0.
0
LINE
8
0
10
2.673170371385231
20
3.887560118395209
30
0.
11
2.673170371385231
21
3.887560118395209
31
0.
0
LINE
8
0
10
2.532545371385231
20
3.96875
30
0.
11
2.532545371385231
21
3.96875
31
0.
0
LINE
8
0
10
2.467454628614769
20
3.96875
30
0.
11
2.467454628614769
21
3.96875
31
0.
0
LINE
8
0
10
2.326829628614769
20
3.887560118395209
30
0.
11
2.326829628614769
21
3.887560118395209
31
0.
0
LINE
8
0
10
2.2942842572295388
20
3.831189881604791
30
0.
11
2.2942842572295388
21
3.831189881604791
31
0.
0
LINE
8
0
10
2.2942842572295388
20
3.668810118395209
30
0.
11
2.2942842572295388
21
3.668810118395209
31
0.
0
LINE
8
0
10
2.326829628614769
20
3.612439881604791
30
0.
11
2.326829628614769
21
3.612439881604791
31
0.
0
LINE
8
0
10
2.467454628614769
20
3.53125
30
0.
11
2.467454628614769
21
3.53125
31
0.
0
LINE
8
0
10
2.532545371385231
20
3.53125
30
0.
11
2.532545371385231
21
3.53125
31
0.
0
LINE
8
0
10
2.673170371385231
20
3.612439881604791
30
0.
11
2.673170371385231
21
3.612439881604791
31
0.
0
LINE
8
0
10
2.7057157427704612
20
3.668810118395209
30
0.
11
2.7057157427704612
21
3.668810118395209
31
0.
0
LINE
8
0
10
2.7057157427704612
20
3.831189881604791
30
0.
11
2.7057157427704612
21
3.831189881604791
31
0.
0
LINE
8
0
10
2.532545371385231
20
5.21875
30
0.
11
2.467454628614769
21
5.21875
31
0.
0
LINE
8
0
10
2.326829628614769
20
5.137560118395209
30
0.
11
2.2942842572295388
21
5.081189881604791
31
0.
0
LINE
8
0
10
2.2942842572295388
20
4.918810118395209
30
0.
11
2.326829628614769
21
4.862439881604791
31
0.
0
LINE
8
0
10
2.467454628614769
20
4.78125
30
0.
11
2.532545371385231
21
4.78125
31
0.
0
LINE
8
0
10
2.7057157427704612
20
5.081189881604791
30
0.
11
2.673170371385231
21
5.137560118395209
31
0.
0
LINE
8
0
10
2.673170371385231
20
4.862439881604791
30
0.
11
2.7057157427704612
21
4.918810118395209
31
0.
0
LINE
8
0
10
2.673170371385231
20
5.137560118395209
30
0.
11
2.673170371385231
21
5.137560118395209
31
0.
0
LINE
8
0
10
2.532545371385231
20
5.21875
30
0.
11
2.532545371385231
21
5.21875
31
0.
0
LINE
8
0
10
2.467454628614769
20
5.21875
30
0.
11
2.467454628614769
21
5.21875
31
0.
0
LINE
8
0
10
2.326829628614769
20
5.137560118395209
30
0.
11
2.326829628614769
21
5.137560118395209
31
0.
0
LINE
8
0
10
2.2942842572295388
20
5.081189881604791
30
0.
11
2.2942842572295388
21
5.081189881604791
31
0.
0
LINE
8
0
10
2.2942842572295388
20
4.918810118395209
30
0.
11
2.2942842572295388
21
4.918810118395209
31
0.
0
LINE
8
0
10
2.326829628614769
20
4.862439881604791
30
0.
11
2.326829628614769
21
4.862439881604791
31
0.
0
LINE
8
0
10
2.467454628614769
20
4.78125
30
0.
11
2.467454628614769
21
4.78125
31
0.
0
LINE
8
0
10
2.532545371385231
20
4.78125
30
0.
11
2.532545371385231
21
4.78125
31
0.
0
LINE
8
0
10
2.673170371385231
20
4.862439881604791
30
0.
11
2.673170371385231
21
4.862439881604791
31
0.
0
LINE
8
0
10
2.7057157427704612
20
4.918810118395209
30
0.
11
2.7057157427704612
21
4.918810118395209
31
0.
0
LINE
8
0
10
2.7057157427704612
20
5.081189881604791
30
0.
11
2.7057157427704612
21
5.081189881604791
31
0.
0
LINE
8
0
10
2.532545371385231
20
6.46875
30
0.
11
2.467454628614769
21
6.46875
31
0.
0
LINE
8
0
10
2.326829628614769
20
6.387560118395209
30
0.
11
2.2942842572295388
21
6.331189881604791
31
0.
0
LINE
8
0
10
2.2942842572295388
20
6.168810118395209
30
0.
11
2.326829628614769
21
6.112439881604791
31
0.
0
LINE
8
0
10
2.467454628614769
20
6.03125
30
0.
11
2.532545371385231
21
6.03125
31
0.
0
LINE
8
0
10
2.7057157427704612
20
6.331189881604791
30
0.
11
2.673170371385231
21
6.387560118395209
31
0.
0
LINE
8
0
10
2.673170371385231
20
6.112439881604791
30
0.
11
2.7057157427704612
21
6.168810118395209
31
0.
0
LINE
8
0
10
2.673170371385231
20
6.387560118395209
30
0.
11
2.673170371385231
21
6.387560118395209
31
0.
0
LINE
8
0
10
2.532545371385231
20
6.46875
30
0.
11
2.532545371385231
21
6.46875
31
0.
0
LINE
8
0
10
2.467454628614769
20
6.46875
30
0.
11
2.467454628614769
21
6.46875
31
0.
0
LINE
8
0
10
2.326829628614769
20
6.387560118395209
30
0.
11
2.326829628614769
21
6.387560118395209
31
0.
0
LINE
8
0
10
2.2942842572295388
20
6.331189881604791
30
0.
11
2.2942842572295388
21
6.331189881604791
31
0.
0
LINE
8
0
10
2.2942842572295388
20
6.168810118395209
30
0.
11
2.2942842572295388
21
6.168810118395209
31
0.
0
LINE
8
0
10
2.326829628614769
20
6.112439881604791
30
0.
11
2.326829628614769
21
6.112439881604791
31
0.
0
LINE
8
0
10
2.467454628614769
20
6.03125
30
0.
11
2.467454628614769
21
6.03125
31
0.
0
LINE
8
0
10
2.532545371385231
20
6.03125
30
0.
11
2.532545371385231
21
6.03125
31
0.
0
LINE
8
0
10
2.673170371385231
20
6.112439881604791
30
0.
11
2.673170371385231
21
6.112439881604791
31
0.
0
LINE
8
0
10
2.7057157427704612
20
6.168810118395209
30
0.
11
2.7057157427704612
21
6.168810118395209
31
0.
0
LINE
8
0
10
2.7057157427704612
20
6.331189881604791
30
0.
11
2.7057157427704612
21
6.331189881604791
31
0.
0
LINE
8
0
10
2.532545371385231
20
7.71875
30
0.
11
2.467454628614769
21
7.71875
31
0.
0
LINE
8
0
10
2.326829628614769
20
7.637560118395209
30
0.
11
2.2942842572295388
21
7.581189881604791
31
0.
0
LINE
8
0
10
2.2942842572295388
20
7.418810118395209
30
0.
11
2.326829628614769
21
7.362439881604791
31
0.
0
LINE
8
0
10
2.467454628614769
20
7.28125
30
0.
11
2.532545371385231
21
7.28125
31
0.
0
LINE
8
0
10
2.7057157427704612
20
7.581189881604791
30
0.
11
2.673170371385231
21
7.637560118395209
31
0.
0
LINE
8
0
10
2.673170371385231
20
7.362439881604791
30
0.
11
2.7057157427704612
21
7.418810118395209
31
0.
0
LINE
8
0
10
2.673170371385231
20
7.637560118395209
30
0.
11
2.673170371385231
21
7.637560118395209
31
0.
0
LINE
8
0
10
2.532545371385231
20
7.71875
30
0.
11
2.532545371385231
21
7.71875
31
0.
0
LINE
8
0
10
2.467454628614769
20
7.71875
30
0.
11
2.467454628614769
21
7.71875
31
0.
0
LINE
8
0
10
2.326829628614769
20
7.637560118395209
30
0.
11
2.326829628614769
21
7.637560118395209
31
0.
0
LINE
8
0
10
2.2942842572295388
20
7.581189881604791
30
0.
11
2.2942842572295388
21
7.581189881604791
31
0.
0
LINE
8
0
10
2.2942842572295388
20
7.418810118395209
30
0.
11
2.2942842572295388
21
7.418810118395209
31
0.
0
LINE
8
0
10
2.326829628614769
20
7.362439881604791
30
0.
11
2.326829628614769
21
7.362439881604791
31
0.
0
LINE
8
0
10
2.467454628614769
20
7.28125
30
0.
11
2.467454628614769
21
7.28125
31
0.
0
LINE
8
0
10
2.532545371385231
20
7.28125
30
0.
11
2.532545371385231
21
7.28125
31
0.
0
LINE
8
0
10
2.673170371385231
20
7.362439881604791
30
0.
11
2.673170371385231
21
7.362439881604791
31
0.
0
LINE
8
0
10
2.7057157427704612
20
7.418810118395209
30
0.
11
2.7057157427704612
21
7.418810118395209
31
0.
0
LINE
8
0
10
2.7057157427704612
20
7.581189881604791
30
0.
11
2.7057157427704612
21
7.581189881604791
31
0.
0
LINE
8
0
10
2.532545371385231
20
8.96875
30
0.
11
2.467454628614769
21
8.96875
31
0.
0
LINE
8
0
10
2.326829628614769
20
8.887560118395209
30
0.
11
2.2942842572295388
21
8.831189881604791
31
0.
0
LINE
8
0
10
2.2942842572295388
20
8.668810118395209
30
0.
11
2.326829628614769
21
8.612439881604791
31
0.
0
LINE
8
0
10
2.467454628614769
20
8.53125
30
0.
11
2.532545371385231
21
8.53125
31
0.
0
LINE
8
0
10
2.7057157427704612
20
8.831189881604791
30
0.
11
2.673170371385231
21
8.887560118395209
31
0.
0
LINE
8
0
10
2.673170371385231
20
8.612439881604791
30
0.
11
2.7057157427704612
21
8.668810118395209
31
0.
0
LINE
8
0
10
2.673170371385231
20
8.887560118395209
30
0.
11
2.673170371385231
21
8.887560118395209
31
0.
0
LINE
8
0
10
2.532545371385231
20
8.96875
30
0.
11
2.532545371385231
21
8.96875
31
0.
0
LINE
8
0
10
2.467454628614769
20
8.96875
30
0.
11
2.467454628614769
21
8.96875
31
0.
0
LINE
8
0
10
2.326829628614769
20
8.887560118395209
30
0.
11
2.326829628614769
21
8.887560118395209
31
0.
0
LINE
8
0
10
2.2942842572295388
20
8.831189881604791
30
0.
11
2.2942842572295388
21
8.831189881604791
31
0.
0
LINE
8
0
10
2.2942842572295388
20
8.668810118395209
30
0.
11
2.2942842572295388
21
8.668810118395209
31
0.
0
LINE
8
0
10
2.326829628614769
20
8.612439881604791
30
0.
11
2.326829628614769
21
8.612439881604791
31
0.
0
LINE
8
0
10
2.467454628614769
20
8.53125
30
0.
11
2.467454628614769
21
8.53125
31
0.
0
LINE
8
0
10
2.532545371385231
20
8.53125
30
0.
11
2.532545371385231
21
8.53125
31
0.
0
LINE
8
0
10
2.673170371385231
20
8.612439881604791
30
0.
11
2.673170371385231
21
8.612439881604791
31
0.
0
LINE
8
0
10
2.7057157427704612
20
8.668810118395209
30
0.
11
2.7057157427704612
21
8.668810118395209
31
0.
0
LINE
8
0
10
2.7057157427704612
20
8.831189881604791
30
0.
11
2.7057157427704612
21
8.831189881604791
31
0.
0
LINE
8
0
10
3.782545371385231
20
1.46875
30
0.
11
3.717454628614769
21
1.46875
31
0.
0
LINE
8
0
10
3.576829628614769
20
1.3875601183952089
30
0.
11
3.5442842572295388
21
1.3311898816047911
31
0.
0
LINE
8
0
10
3.5442842572295388
20
1.1688101183952089
30
0.
11
3.576829628614769
21
1.1124398816047911
31
0.
0
LINE
8
0
10
3.717454628614769
20
1.03125
30
0.
11
3.782545371385231
21
1.03125
31
0.
0
LINE
8
0
10
3.9557157427704612
20
1.3311898816047911
30
0.
11
3.923170371385231
21
1.3875601183952089
31
0.
0
LINE
8
0
10
3.923170371385231
20
1.1124398816047911
30
0.
11
3.9557157427704612
21
1.1688101183952089
31
0.
0
LINE
8
0
10
3.923170371385231
20
1.3875601183952089
30
0.
11
3.923170371385231
21
1.3875601183952089
31
0.
0
LINE
8
0
10
3.782545371385231
20
1.46875
30
0.
11
3.782545371385231
21
1.46875
31
0.
0
LINE
8
0
10
3.717454628614769
20
1.46875
30
0.
11
3.717454628614769
21
1.46875
31
0.
0
LINE
8
0
10
3.576829628614769
20
1.3875601183952089
30
0.
11
3.576829628614769
21
1.3875601183952089
31
0.
0
LINE
8
0
10
3.5442842572295388
20
1.3311898816047911
30
0.
11
3.5442842572295388
21
1.3311898816047911
31
0.
0
LINE
8
0
10
3.5442842572295388
20
1.1688101183952089
30
0.
11
3.5442842572295388
21
1.1688101183952089
31
0.
0
LINE
8
0
10
3.576829628614769
20
1.1124398816047911
30
0.
11
3.576829628614769
21
1.1124398816047911
31
0.
0
LINE
8
0
10
3.717454628614769
20
1.03125
30
0.
11
3.717454628614769
21
1.03125
31
0.
0
LINE
8
0
10
3.782545371385231
20
1.03125
30
0.
11
3.782545371385231
21
1.03125
31
0.
0
LINE
8
0
10
3.923170371385231
20
1.1124398816047911
30
0.
11
3.923170371385231
21
1.1124398816047911
31
0.
0
LINE
8
0
10
3.9557157427704612
20
1.1688101183952089
30
0.
11
3.9557157427704612
21
1.1688101183952089
31
0.
0
LINE
8
0
10
3.9557157427704612
20
1.3311898816047911
30
0.
11
3.9557157427704612
21
1.3311898816047911
31
0.
0
LINE
8
0
10
3.782545371385231
20
2.71875
30
0.
11
3.717454628614769
21
2.71875
31
0.
0
LINE
8
0
10
3.576829628614769
20
2.637560118395209
30
0.
11
3.5442842572295388
21
2.581189881604791
31
0.
0
LINE
8
0
10
3.5442842572295388
20
2.418810118395209
30
0.
11
3.576829628614769
21
2.362439881604791
31
0.
0
LINE
8
0
10
3.717454628614769
20
2.28125
30
0.
11
3.782545371385231
21
2.28125
31
0.
0
LINE
8
0
10
3.9557157427704612
20
2.581189881604791
30
0.
11
3.923170371385231
21
2.637560118395209
31
0.
0
LINE
8
0
10
3.923170371385231
20
2.362439881604791
30
0.
11
3.9557157427704612
21
2.418810118395209
31
0.
0
LINE
8
0
10
3.923170371385231
20
2.637560118395209
30
0.
11
3.923170371385231
21
2.637560118395209
31
0.
0
LINE
8
0
10
3.782545371385231
20
2.71875
30
0.
11
3.782545371385231
21
2.71875
31
0.
0
LINE
8
0
10
3.717454628614769
20
2.71875
30
0.
11
3.717454628614769
21
2.71875
31
0.
0
LINE
8
0
10
3.576829628614769
20
2.637560118395209
30
0.
11
3.576829628614769
21
2.637560118395209
31
0.
0
LINE
8
0
10
3.5442842572295388
20
2.581189881604791
30
0.
11
3.5442842572295388
21
2.581189881604791
31
0.
0
LINE
8
0
10
3.5442842572295388
20
2.418810118395209
30
0.
11
3.5442842572295388
21
2.418810118395209
31
0.
0
LINE
8
0
10
3.576829628614769
20
2.362439881604791
30
0.
11
3.576829628614769
21
2.362439881604791
31
0.
0
LINE
8
0
10
3.717454628614769
20
2.28125
30
0.
11
3.717454628614769
21
2.28125
31
0.
0
LINE
8
0
10
3.782545371385231
20
2.28125
30
0.
11
3.782545371385231
21
2.28125
31
0.
0
LINE
8
0
10
3.923170371385231
20
2.362439881604791
30
0.
11
3.923170371385231
21
2.362439881604791
31
0.
0
LINE
8
0
10
3.9557157427704612
20
2.418810118395209
30
0.
11
3.9557157427704612
21
2.418810118395209
31
0.
0
LINE
8
0
10
3.9557157427704612
20
2.581189881604791
30
0.
11
3.9557157427704612
21
2.581189881604791
31
0.
0
LINE
8
0
10
3.782545371385231
20
3.96875
30
0.
11
3.717454628614769
21
3.96875
31
0.
0
LINE
8
0
10
3.576829628614769
20
3.887560118395209
30
0.
11
3.5442842572295388
21
3.831189881604791
31
0.
0
LINE
8
0
10
3.5442842572295388
20
3.668810118395209
30
0.
11
3.576829628614769
21
3.612439881604791
31
0.
0
LINE
8
0
10
3.717454628614769
20
3.53125
30
0.
11
3.782545371385231
21
3.53125
31
0.
0
LINE
8
0
10
3.9557157427704612
20
3.831189881604791
30
0.
11
3.923170371385231
21
3.887560118395209
31
0.
0
LINE
8
0
10
3.923170371385231
20
3.612439881604791
30
0.
11
3.9557157427704612
21
3.668810118395209
31
0.
0
LINE
8
0
10
3.923170371385231
20
3.887560118395209
30
0.
11
3.923170371385231
21
3.887560118395209
31
0.
0
LINE
8
0
10
3.782545371385231
20
3.96875
30
0.
11
3.782545371385231
21
3.96875
31
0.
0
LINE
8
0
10
3.717454628614769
20
3.96875
30
0.
11
3.717454628614769
21
3.96875
31
0.
0
LINE
8
0
10
3.576829628614769
20
3.887560118395209
30
0.
11
3.576829628614769
21
3.887560118395209
31
0.
0
LINE
8
0
10
3.5442842572295388
20
3.831189881604791
30
0.
11
3.5442842572295388
21
3.831189881604791
31
0.
0
LINE
8
0
10
3.5442842572295388
20
3.668810118395209
30
0.
11
3.5442842572295388
21
3.668810118395209
31
0.
0
LINE
8
0
10
3.576829628614769
20
3.612439881604791
30
0.
11
3.576829628614769
21
3.612439881604791
31
0.
0
LINE
8
0
10
3.717454628614769
20
3.53125
30
0.
11
3.717454628614769
21
3.53125
31
0.
0
LINE
8
0
10
3.782545371385231
20
3.53125
30
0.
11
3.782545371385231
21
3.53125
31
0.
0
LINE
8
0
10
3.923170371385231
20
3.612439881604791
30
0.
11
3.923170371385231
21
3.612439881604791
31
0.
0
LINE
8
0
10
3.9557157427704612
20
3.668810118395209
30
0.
11
3.9557157427704612
21
3.668810118395209
31
0.
0
LINE
8
0
10
3.9557157427704612
20
3.831189881604791
30
0.
11
3.9557157427704612
21
3.831189881604791
31
0.
0
LINE
8
0
10
3.782545371385231
20
5.21875
30
0.
11
3.717454628614769
21
5.21875
31
0.
0
LINE
8
0
10
3.576829628614769
20
5.137560118395209
30
0.
11
3.5442842572295388
21
5.081189881604791
31
0.
0
LINE
8
0
10
3.5442842572295388
20
4.918810118395209
30
0.
11
3.576829628614769
21
4.862439881604791
31
0.
0
LINE
8
0
10
3.717454628614769
20
4.78125
30
0.
11
3.782545371385231
21
4.78125
31
0.
0
LINE
8
0
10
3.9557157427704612
20
5.081189881604791
30
0.
11
3.923170371385231
21
5.137560118395209
31
0.
0
LINE
8
0
10
3.923170371385231
20
4.862439881604791
30
0.
11
3.9557157427704612
21
4.918810118395209
31
0.
0
LINE
8
0
10
3.923170371385231
20
5.137560118395209
30
0.
11
3.923170371385231
21
5.137560118395209
31
0.
0
LINE
8
0
10
3.782545371385231
20
5.21875
30
0.
11
3.782545371385231
21
5.21875
31
0.
0
LINE
8
0
10
3.717454628614769
20
5.21875
30
0.
11
3.717454628614769
21
5.21875
31
0.
0
LINE
8
0
10
3.576829628614769
20
5.137560118395209
30
0.
11
3.576829628614769
21
5.137560118395209
31
0.
0
LINE
8
0
10
3.5442842572295388
20
5.081189881604791
30
0.
11
3.5442842572295388
21
5.081189881604791
31
0.
0
LINE
8
0
10
3.5442842572295388
20
4.918810118395209
30
0.
11
3.5442842572295388
21
4.918810118395209
31
0.
0
LINE
8
0
10
3.576829628614769
20
4.862439881604791
30
0.
11
3.576829628614769
21
4.862439881604791
31
0.
0
LINE
8
0
10
3.717454628614769
20
4.78125
30
0.
11
3.717454628614769
21
4.78125
31
0.
0
LINE
8
0
10
3.782545371385231
20
4.78125
30
0.
11
3.782545371385231
21
4.78125
31
0.
0
LINE
8
0
10
3.923170371385231
20
4.862439881604791
30
0.
11
3.923170371385231
21
4.862439881604791
31
0.
0
LINE
8
0
10
3.9557157427704612
20
4.918810118395209
30
0.
11
3.9557157427704612
21
4.918810118395209
31
0.
0
LINE
8
0
10
3.9557157427704612
20
5.081189881604791
30
0.
11
3.9557157427704612
21
5.081189881604791
31
0.
0
LINE
8
0
10
3.782545371385231
20
6.46875
30
0.
11
3.717454628614769
21
6.46875
31
0.
0
LINE
8
0
10
3.576829628614769
20
6.387560118395209
30
0.
11
3.5442842572295388
21
6.331189881604791
31
0.
0
LINE
8
0
10
3.5442842572295388
20
6.168810118395209
30
0.
11
3.576829628614769
21
6.112439881604791
31
0.
0
LINE
8
0
10
3.717454628614769
20
6.03125
30
0.
11
3.782545371385231
21
6.03125
31
0.
0
LINE
8
0
10
3.9557157427704612
20
6.331189881604791
30
0.
11
3.923170371385231
21
6.387560118395209
31
0.
0
LINE
8
0
10
3.923170371385231
20
6.112439881604791
30
0.
11
3.9557157427704612
21
6.168810118395209
31
0.
0
LINE
8
0
10
3.923170371385231
20
6.387560118395209
30
0.
11
3.923170371385231
21
6.387560118395209
31
0.
0
LINE
8
0
10
3.782545371385231
20
6.46875
30
0.
11
3.782545371385231
21
6.46875
31
0.
0
LINE
8
0
10
3.717454628614769
20
6.46875
30
0.
11
3.717454628614769
21
6.46875
31
0.
0
LINE
8
0
10
3.576829628614769
20
6.387560118395209
30
0.
11
3.576829628614769
21
6.387560118395209
31
0.
0
LINE
8
0
10
3.5442842572295388
20
6.331189881604791
30
0.
11
3.5442842572295388
21
6.331189881604791
31
0.
0
LINE
8
0
10
3.5442842572295388
20
6.168810118395209
30
0.
11
3.5442842572295388
21
6.168810118395209
31
0.
0
LINE
8
0
10
3.576829628614769
20
6.112439881604791
30
0.
11
3.576829628614769
21
6.112439881604791
31
0.
0
LINE
8
0
10
3.717454628614769
20
6.03125
30
0.
11
3.717454628614769
21
6.03125
31
0.
0
LINE
8
0
10
3.782545371385231
20
6.03125
30
0.
11
3.782545371385231
21
6.03125
31
0.
0
LINE
8
0
10
3.923170371385231
20
6.112439881604791
30
0.
11
3.923170371385231
21
6.112439881604791
31
0.
0
LINE
8
0
10
3.9557157427704612
20
6.168810118395209
30
0.
11
3.9557157427704612
21
6.168810118395209
31
0.
0
LINE
8
0
10
3.9557157427704612
20
6.331189881604791
30
0.
11
3.9557157427704612
21
6.331189881604791
31
0.
0
LINE
8
0
10
3.782545371385231
20
7.71875
30
0.
11
3.717454628614769
21
7.71875
31
0.
0
LINE
8
0
10
3.576829628614769
20
7.637560118395209
30
0.
11
3.5442842572295388
21
7.581189881604791
31
0.
0
LINE
8
0
10
3.5442842572295388
20
7.418810118395209
30
0.
11
3.576829628614769
21
7.362439881604791
31
0.
0
LINE
8
0
10
3.717454628614769
20
7.28125
30
0.
11
3.782545371385231
21
7.28125
31
0.
0
LINE
8
0
10
3.9557157427704612
20
7.581189881604791
30
0.
11
3.923170371385231
21
7.637560118395209
31
0.
0
LINE
8
0
10
3.923170371385231
20
7.362439881604791
30
0.
11
3.9557157427704612
21
7.418810118395209
31
0.
0
LINE
8
0
10
3.923170371385231
20
7.637560118395209
30
0.
11
3.923170371385231
21
7.637560118395209
31
0.
0
LINE
8
0
10
3.782545371385231
20
7.71875
30
0.
11
3.782545371385231
21
7.71875
31
0.
0
LINE
8
0
10
3.717454628614769
20
7.71875
30
0.
11
3.717454628614769
21
7.71875
31
0.
0
LINE
8
0
10
3.576829628614769
20
7.637560118395209
30
0.
11
3.576829628614769
21
7.637560118395209
31
0.
0
LINE
8
0
10
3.5442842572295388
20
7.581189881604791
30
0.
11
3.5442842572295388
21
7.581189881604791
31
0.
0
LINE
8
0
10
3.5442842572295388
20
7.418810118395209
30
0.
11
3.5442842572295388
21
7.418810118395209
31
0.
0
LINE
8
0
10
3.576829628614769
20
7.362439881604791
30
0.
11
3.576829628614769
21
7.362439881604791
31
0.
0
LINE
8
0
10
3.717454628614769
20
7.28125
30
0.
11
3.717454628614769
21
7.28125
31
0.
0
LINE
8
0
10
3.782545371385231
20
7.28125
30
0.
11
3.782545371385231
21
7.28125
31
0.
0
LINE
8
0
10
3.923170371385231
20
7.362439881604791
30
0.
11
3.923170371385231
21
7.362439881604791
31
0.
0
LINE
8
0
10
3.9557157427704612
20
7.418810118395209
30
0.
11
3.9557157427704612
21
7.418810118395209
31
0.
0
LINE
8
0
10
3.9557157427704612
20
7.581189881604791
30
0.
11
3.9557157427704612
21
7.581189881604791
31
0.
0
LINE
8
0
10
3.782545371385231
20
8.96875
30
0.
11
3.717454628614769
21
8.96875
31
0.
0
LINE
8
0
10
3.576829628614769
20
8.887560118395209
30
0.
11
3.5442842572295388
21
8.831189881604791
31
0.
0
LINE
8
0
10
3.5442842572295388
20
8.668810118395209
30
0.
11
3.576829628614769
21
8.612439881604791
31
0.
0
LINE
8
0
10
3.717454628614769
20
8.53125
30
0.
11
3.782545371385231
21
8.53125
31
0.
0
LINE
8
0
10
3.9557157427704612
20
8.831189881604791
30
0.
11
3.923170371385231
21
8.887560118395209
31
0.
0
LINE
8
0
10
3.923170371385231
20
8.612439881604791
30
0.
11
3.9557157427704612
21
8.668810118395209
31
0.
0
LINE
8
0
10
3.923170371385231
20
8.887560118395209
30
0.
11
3.923170371385231
21
8.887560118395209
31
0.
0
LINE
8
0
10
3.782545371385231
20
8.96875
30
0.
11
3.782545371385231
21
8.96875
31
0.
0
LINE
8
0
10
3.717454628614769
20
8.96875
30
0.
11
3.717454628614769
21
8.96875
31
0.
0
LINE
8
0
10
3.576829628614769
20
8.887560118395209
30
0.
11
3.576829628614769
21
8.887560118395209
31
0.
0
LINE
8
0
10
3.5442842572295388
20
8.831189881604791
30
0.
11
3.5442842572295388
21
8.831189881604791
31
0.
0
LINE
8
0
10
3.5442842572295388
20
8.668810118395209
30
0.
11
3.5442842572295388
21
8.668810118395209
31
0.
0
LINE
8
0
10
3.576829628614769
20
8.612439881604791
30
0.
11
3.576829628614769
21
8.612439881604791
31
0.
0
LINE
8
0
10
3.717454628614769
20
8.53125
30
0.
11
3.717454628614769
21
8.53125
31
0.
0
LINE
8
0
10
3.782545371385231
20
8.53125
30
0.
11
3.782545371385231
21
8.53125
31
0.
0
LINE
8
0
10
3.923170371385231
20
8.612439881604791
30
0.
11
3.923170371385231
21
8.612439881604791
31
0.
0
LINE
8
0
10
3.9557157427704612
20
8.668810118395209
30
0.
11
3.9557157427704612
21
8.668810118395209
31
0.
0
LINE
8
0
10
3.9557157427704612
20
8.831189881604791
30
0.
11
3.9557157427704612
21
8.831189881604791
31
0.
0
LINE
8
0
10
5.032545371385231
20
1.46875
30
0.
11
4.967454628614769
21
1.46875
31
0.
0
LINE
8
0
10
4.826829628614769
20
1.3875601183952089
30
0.
11
4.794284257229538
21
1.3311898816047911
31
0.
0
LINE
8
0
10
4.794284257229538
20
1.1688101183952089
30
0.
11
4.826829628614769
21
1.1124398816047911
31
0.
0
LINE
8
0
10
4.967454628614769
20
1.03125
30
0.
11
5.032545371385231
21
1.03125
31
0.
0
LINE
8
0
10
5.205715742770462
20
1.3311898816047911
30
0.
11
5.173170371385231
21
1.3875601183952089
31
0.
0
LINE
8
0
10
5.173170371385231
20
1.1124398816047911
30
0.
11
5.205715742770462
21
1.1688101183952089
31
0.
0
LINE
8
0
10
5.173170371385231
20
1.3875601183952089
30
0.
11
5.173170371385231
21
1.3875601183952089
31
0.
0
LINE
8
0
10
5.032545371385231
20
1.46875
30
0.
11
5.032545371385231
21
1.46875
31
0.
0
LINE
8
0
10
4.967454628614769
20
1.46875
30
0.
11
4.967454628614769
21
1.46875
31
0.
0
LINE
8
0
10
4.826829628614769
20
1.3875601183952089
30
0.
11
4.826829628614769
21
1.3875601183952089
31
0.
0
LINE
8
0
10
4.794284257229538
20
1.3311898816047911
30
0.
11
4.794284257229538
21
1.3311898816047911
31
0.
0
LINE
8
0
10
4.794284257229538
20
1.1688101183952089
30
0.
11
4.794284257229538
21
1.1688101183952089
31
0.
0
LINE
8
0
10
4.826829628614769
20
1.1124398816047911
30
0.
11
4.826829628614769
21
1.1124398816047911
31
0.
0
LINE
8
0
10
4.967454628614769
20
1.03125
30
0.
11
4.967454628614769
21
1.03125
31
0.
0
LINE
8
0
10
5.032545371385231
20
1.03125
30
0.
11
5.032545371385231
21
1.03125
31
0.
0
LINE
8
0
10
5.173170371385231
20
1.1124398816047911
30
0.
11
5.173170371385231
21
1.1124398816047911
31
0.
0
LINE
8
0
10
5.205715742770462
20
1.1688101183952089
30
0.
11
5.205715742770462
21
1.1688101183952089
31
0.
0
LINE
8
0
10
5.205715742770462
20
1.3311898816047911
30
0.
11
5.205715742770462
21
1.3311898816047911
31
0.
0
LINE
8
0
10
5.032545371385231
20
2.71875
30
0.
11
4.967454628614769
21
2.71875
31
0.
0
LINE
8
0
10
4.826829628614769
20
2.637560118395209
30
0.
11
4.794284257229538
21
2.581189881604791
31
0.
0
LINE
8
0
10
4.794284257229538
20
2.418810118395209
30
0.
11
4.826829628614769
21
2.362439881604791
31
0.
0
LINE
8
0
10
4.967454628614769
20
2.28125
30
0.
11
5.032545371385231
21
2.28125
31
0.
0
LINE
8
0
10
5.205715742770462
20
2.581189881604791
30
0.
11
5.173170371385231
21
2.637560118395209
31
0.
0
LINE
8
0
10
5.173170371385231
20
2.362439881604791
30
0.
11
5.205715742770462
21
2.418810118395209
31
0.
0
LINE
8
0
10
5.173170371385231
20
2.637560118395209
30
0.
11
5.173170371385231
21
2.637560118395209
31
0.
0
LINE
8
0
10
5.032545371385231
20
2.71875
30
0.
11
5.032545371385231
21
2.71875
31
0.
0
LINE
8
0
10
4.967454628614769
20
2.71875
30
0.
11
4.967454628614769
21
2.71875
31
0.
0
LINE
8
0
10
4.826829628614769
20
2.637560118395209
30
0.
11
4.826829628614769
21
2.637560118395209
31
0.
0
LINE
8
0
10
4.794284257229538
20
2.581189881604791
30
0.
11
4.794284257229538
21
2.581189881604791
31
0.
0
LINE
8
0
10
4.794284257229538
20
2.418810118395209
30
0.
11
4.794284257229538
21
2.418810118395209
31
0.
0
LINE
8
0
10
4.826829628614769
20
2.362439881604791
30
0.
11
4.826829628614769
21
2.362439881604791
31
0.
0
LINE
8
0
10
4.967454628614769
20
2.28125
30
0.
11
4.967454628614769
21
2.28125
31
0.
0
LINE
8
0
10
5.032545371385231
20
2.28125
30
0.
11
5.032545371385231
21
2.28125
31
0.
0
LINE
8
0
10
5.173170371385231
20
2.362439881604791
30
0.
11
5.173170371385231
21
2.362439881604791
31
0.
0
LINE
8
0
10
5.205715742770462
20
2.418810118395209
30
0.
11
5.205715742770462
21
2.418810118395209
31
0.
0
LINE
8
0
10
5.205715742770462
20
2.581189881604791
30
0.
11
5.205715742770462
21
2.581189881604791
31
0.
0
LINE
8
0
10
5.032545371385231
20
3.96875
30
0.
11
4.967454628614769
21
3.96875
31
0.
0
LINE
8
0
10
4.826829628614769
20
3.887560118395209
30
0.
11
4.794284257229538
21
3.831189881604791
31
0.
0
LINE
8
0
10
4.794284257229538
20
3.668810118395209
30
0.
11
4.826829628614769
21
3.612439881604791
31
0.
0
LINE
8
0
10
4.967454628614769
20
3.53125
30
0.
11
5.032545371385231
21
3.53125
31
0.
0
LINE
8
0
10
5.205715742770462
20
3.831189881604791
30
0.
11
5.173170371385231
21
3.887560118395209
31
0.
0
LINE
8
0
10
5.173170371385231
20
3.612439881604791
30
0.
11
5.205715742770462
21
3.668810118395209
31
0.
0
LINE
8
0
10
5.173170371385231
20
3.887560118395209
30
0.
11
5.173170371385231
21
3.887560118395209
31
0.
0
LINE
8
0
10
5.032545371385231
20
3.96875
30
0.
11
5.032545371385231
21
3.96875
31
0.
0
LINE
8
0
10
4.967454628614769
20
3.96875
30
0.
11
4.967454628614769
21
3.96875
31
0.
0
LINE
8
0
10
4.826829628614769
20
3.887560118395209
30
0.
11
4.826829628614769
21
3.887560118395209
31
0.
0
LINE
8
0
10
4.794284257229538
20
3.831189881604791
30
0.
11
4.794284257229538
21
3.831189881604791
31
0.
0
LINE
8
0
10
4.794284257229538
20
3.668810118395209
30
0.
11
4.794284257229538
21
3.668810118395209
31
0.
0
LINE
8
0
10
4.826829628614769
20
3.612439881604791
30
0.
11
4.826829628614769
21
3.612439881604791
31
0.
0
LINE
8
0
10
4.967454628614769
20
3.53125
30
0.
11
4.967454628614769
21
3.53125
31
0.
0
LINE
8
0
10
5.032545371385231
20
3.53125
30
0.
11
5.032545371385231
21
3.53125
31
0.
0
LINE
8
0
10
5.173170371385231
20
3.612439881604791
30
0.
11
5.173170371385231
21
3.612439881604791
31
0.
0
LINE
8
0
10
5.205715742770462
20
3.668810118395209
30
0.
11
5.205715742770462
21
3.668810118395209
31
0.
0
LINE
8
0
10
5.205715742770462
20
3.831189881604791
30
0.
11
5.205715742770462
21
3.831189881604791
31
0.
0
LINE
8
0
10
5.032545371385231
20
5.21875
30
0.
11
4.967454628614769
21
5.21875
31
0.
0
LINE
8
0
10
4.826829628614769
20
5.137560118395209
30
0.
11
4.794284257229538
21
5.081189881604791
31
0.
0
LINE
8
0
10
4.794284257229538
20
4.918810118395209
30
0.
11
4.826829628614769
21
4.862439881604791
31
0.
0
LINE
8
0
10
4.967454628614769
20
4.78125
30
0.
11
5.032545371385231
21
4.78125
31
0.
0
LINE
8
0
10
5.205715742770462
20
5.081189881604791
30
0.
11
5.173170371385231
21
5.137560118395209
31
0.
0
LINE
8
0
10
5.173170371385231
20
4.862439881604791
30
0.
11
5.205715742770462
21
4.918810118395209
31
0.
0
LINE
8
0
10
5.173170371385231
20
5.137560118395209
30
0.
11
5.173170371385231
21
5.137560118395209
31
0.
0
LINE
8
0
10
5.032545371385231
20
5.21875
30
0.
11
5.032545371385231
21
5.21875
31
0.
0
LINE
8
0
10
4.967454628614769
20
5.21875
30
0.
11
4.967454628614769
21
5.21875
31
0.
0
LINE
8
0
10
4.826829628614769
20
5.137560118395209
30
0.
11
4.826829628614769
21
5.137560118395209
31
0.
0
LINE
8
0
10
4.794284257229538
20
5.081189881604791
30
0.
11
4.794284257229538
21
5.081189881604791
31
0.
0
LINE
8
0
10
4.794284257229538
20
4.918810118395209
30
0.
11
4.794284257229538
21
4.918810118395209
31
0.
0
LINE
8
0
10
4.826829628614769
20
4.862439881604791
30
0.
11
4.826829628614769
21
4.862439881604791
31
0.
0
LINE
8
0
10
4.967454628614769
20
4.78125
30
0.
11
4.967454628614769
21
4.78125
31
0.
0
LINE
8
0
10
5.032545371385231
20
4.78125
30
0.
11
5.032545371385231
21
4.78125
31
0.
0
LINE
8
0
10
5.173170371385231
20
4.862439881604791
30
0.
11
5.173170371385231
21
4.862439881604791
31
0.
0
LINE
8
0
10
5.205715742770462
20
4.918810118395209
30
0.
11
5.205715742770462
21
4.918810118395209
31
0.
0
LINE
8
0
10
5.205715742770462
20
5.081189881604791
30
0.
11
5.205715742770462
21
5.081189881604791
31
0.
0
LINE
8
0
10
5.032545371385231
20
6.46875
30
0.
11
4.967454628614769
21
6.46875
31
0.
0
LINE
8
0
10
4.826829628614769
20
6.387560118395209
30
0.
11
4.794284257229538
21
6.331189881604791
31
0.
0
LINE
8
0
10
4.794284257229538
20
6.168810118395209
30
0.
11
4.826829628614769
21
6.112439881604791
31
0.
0
LINE
8
0
10
4.967454628614769
20
6.03125
30
0.
11
5.032545371385231
21
6.03125
31
0.
0
LINE
8
0
10
5.205715742770462
20
6.331189881604791
30
0.
11
5.173170371385231
21
6.387560118395209
31
0.
0
LINE
8
0
10
5.173170371385231
20
6.112439881604791
30
0.
11
5.205715742770462
21
6.168810118395209
31
0.
0
LINE
8
0
10
5.173170371385231
20
6.387560118395209
30
0.
11
5.173170371385231
21
6.387560118395209
31
0.
0
LINE
8
0
10
5.032545371385231
20
6.46875
30
0.
11
5.032545371385231
21
6.46875
31
0.
0
LINE
8
0
10
4.967454628614769
20
6.46875
30
0.
11
4.967454628614769
21
6.46875
31
0.
0
LINE
8
0
10
4.826829628614769
20
6.387560118395209
30
0.
11
4.826829628614769
21
6.387560118395209
31
0.
0
LINE
8
0
10
4.794284257229538
20
6.331189881604791
30
0.
11
4.794284257229538
21
6.331189881604791
31
0.
0
LINE
8
0
10
4.794284257229538
20
6.168810118395209
30
0.
11
4.794284257229538
21
6.168810118395209
31
0.
0
LINE
8
0
10
4.826829628614769
20
6.112439881604791
30
0.
11
4.826829628614769
21
6.112439881604791
31
0.
0
LINE
8
0
10
4.967454628614769
20
6.03125
30
0.
11
4.967454628614769
21
6.03125
31
0.
0
LINE
8
0
10
5.032545371385231
20
6.03125
30
0.
11
5.032545371385231
21
6.03125
31
0.
0
LINE
8
0
10
5.173170371385231
20
6.112439881604791
30
0.
11
5.173170371385231
21
6.112439881604791
31
0.
0
LINE
8
0
10
5.205715742770462
20
6.168810118395209
30
0.
11
5.205715742770462
21
6.168810118395209
31
0.
0
LINE
8
0
10
5.205715742770462
20
6.331189881604791
30
0.
11
5.205715742770462
21
6.331189881604791
31
0.
0
LINE
8
0
10
5.032545371385231
20
7.71875
30
0.
11
4.967454628614769
21
7.71875
31
0.
0
LINE
8
0
10
4.826829628614769
20
7.637560118395209
30
0.
11
4.794284257229538
21
7.581189881604791
31
0.
0
LINE
8
0
10
4.794284257229538
20
7.418810118395209
30
0.
11
4.826829628614769
21
7.362439881604791
31
0.
0
LINE
8
0
10
4.967454628614769
20
7.28125
30
0.
11
5.032545371385231
21
7.28125
31
0.
0
LINE
8
0
10
5.205715742770462
20
7.581189881604791
30
0.
11
5.173170371385231
21
7.637560118395209
31
0.
0
LINE
8
0
10
5.173170371385231
20
7.362439881604791
30
0.
11
5.205715742770462
21
7.418810118395209
31
0.
0
LINE
8
0
10
5.173170371385231
20
7.637560118395209
30
0.
11
5.173170371385231
21
7.637560118395209
31
0.
0
LINE
8
0
10
5.032545371385231
20
7.71875
30
0.
11
5.032545371385231
21
7.71875
31
0.
0
LINE
8
0
10
4.967454628614769
20
7.71875
30
0.
11
4.967454628614769
21
7.71875
31
0.
0
LINE
8
0
10
4.826829628614769
20
7.637560118395209
30
0.
11
4.826829628614769
21
7.637560118395209
31
0.
0
LINE
8
0
10
4.794284257229538
20
7.581189881604791
30
0.
11
4.794284257229538
21
7.581189881604791
31
0.
0
LINE
8
0
10
4.794284257229538
20
7.418810118395209
30
0.
11
4.794284257229538
21
7.418810118395209
31
0.
0
LINE
8
0
10
4.826829628614769
20
7.362439881604791
30
0.
11
4.826829628614769
21
7.362439881604791
31
0.
0
LINE
8
0
10
4.967454628614769
20
7.28125
30
0.
11
4.967454628614769
21
7.28125
31
0.
0
LINE
8
0
10
5.032545371385231
20
7.28125
30
0.
11
5.032545371385231
21
7.28125
31
0.
0
LINE
8
0
10
5.173170371385231
20
7.362439881604791
30
0.
11
5.173170371385231
21
7.362439881604791
31
0.
0
LINE
8
0
10
5.205715742770462
20
7.418810118395209
30
0.
11
5.205715742770462
21
7.418810118395209
31
0.
0
LINE
8
0
10
5.205715742770462
20
7.581189881604791
30
0.
11
5.205715742770462
21
7.581189881604791
31
0.
0
LINE
8
0
10
5.032545371385231
20
8.96875
30
0.
11
4.967454628614769
21
8.96875
31
0.
0
LINE
8
0
10
4.826829628614769
20
8.887560118395209
30
0.
11
4.794284257229538
21
8.831189881604791
31
0.
0
LINE
8
0
10
4.794284257229538
20
8.668810118395209
30
0.
11
4.826829628614769
21
8.612439881604791
31
0.
0
LINE
8
0
10
4.967454628614769
20
8.53125
30
0.
11
5.032545371385231
21
8.53125
31
0.
0
LINE
8
0
10
5.205715742770462
20
8.831189881604791
30
0.
11
5.173170371385231
21
8.887560118395209
31
0.
0
LINE
8
0
10
5.173170371385231
20
8.612439881604791
30
0.
11
5.205715742770462
21
8.668810118395209
31
0.
0
LINE
8
0
10
5.173170371385231
20
8.887560118395209
30
0.
11
5.173170371385231
21
8.887560118395209
31
0.
0
LINE
8
0
10
5.032545371385231
20
8.96875
30
0.
11
5.032545371385231
21
8.96875
31
0.
0
LINE
8
0
10
4.967454628614769
20
8.96875
30
0.
11
4.967454628614769
21
8.96875
31
0.
0
LINE
8
0
10
4.826829628614769
20
8.887560118395209
30
0.
11
4.826829628614769
21
8.887560118395209
31
0.
0
LINE
8
0
10
4.794284257229538
20
8.831189881604791
30
0.
11
4.794284257229538
21
8.831189881604791
31
0.
0
LINE
8
0
10
4.794284257229538
20
8.668810118395209
30
0.
11
4.794284257229538
21
8.668810118395209
31
0.
0
LINE
8
0
10
4.826829628614769
20
8.612439881604791
30
0.
11
4.826829628614769
21
8.612439881604791
31
0.
0
LINE
8
0
10
4.967454628614769
20
8.53125
30
0.
11
4.967454628614769
21
8.53125
31
0.
0
LINE
8
0
10
5.032545371385231
20
8.53125
30
0.
11
5.032545371385231
21
8.53125
31
0.
0
LINE
8
0
10
5.173170371385231
20
8.612439881604791
30
0.
11
5.173170371385231
21
8.612439881604791
31
0.
0
LINE
8
0
10
5.205715742770462
20
8.668810118395209
30
0.
11
5.205715742770462
21
8.668810118395209
31
0.
0
LINE
8
0
10
5.205715742770462
20
8.831189881604791
30
0.
11
5.205715742770462
21
8.831189881604791
31
0.
0
LINE
8
0
10
6.282545371385231
20
1.46875
30
0.
11
6.217454628614769
21
1.46875
31
0.
0
LINE
8
0
10
6.076829628614769
20
1.3875601183952089
30
0.
11
6.044284257229538
21
1.3311898816047911
31
0.
0
LINE
8
0
10
6.044284257229538
20
1.1688101183952089
30
0.
11
6.076829628614769
21
1.1124398816047911
31
0.
0
LINE
8
0
10
6.217454628614769
20
1.03125
30
0.
11
6.282545371385231
21
1.03125
31
0.
0
LINE
8
0
10
6.455715742770462
20
1.3311898816047911
30
0.
11
6.423170371385231
21
1.3875601183952089
31
0.
0
LINE
8
0
10
6.423170371385231
20
1.1124398816047911
30
0.
11
6.455715742770462
21
1.1688101183952089
31
0.
0
LINE
8
0
10
6.423170371385231
20
1.3875601183952089
30
0.
11
6.423170371385231
21
1.3875601183952089
31
0.
0
LINE
8
0
10
6.282545371385231
20
1.46875
30
0.
11
6.282545371385231
21
1.46875
31
0.
0
LINE
8
0
10
6.217454628614769
20
1.46875
30
0.
11
6.217454628614769
21
1.46875
31
0.
0
LINE
8
0
10
6.076829628614769
20
1.3875601183952089
30
0.
11
6.076829628614769
21
1.3875601183952089
31
0.
0
LINE
8
0
10
6.044284257229538
20
1.3311898816047911
30
0.
11
6.044284257229538
21
1.3311898816047911
31
0.
0
LINE
8
0
10
6.044284257229538
20
1.1688101183952089
30
0.
11
6.044284257229538
21
1.1688101183952089
31
0.
0
LINE
8
0
10
6.076829628614769
20
1.1124398816047911
30
0.
11
6.076829628614769
21
1.1124398816047911
31
0.
0
LINE
8
0
10
6.217454628614769
20
1.03125
30
0.
11
6.217454628614769
21
1.03125
31
0.
0
LINE
8
0
10
6.282545371385231
20
1.03125
30
0.
11
6.282545371385231
21
1.03125
31
0.
0
LINE
8
0
10
6.423170371385231
20
1.1124398816047911
30
0.
11
6.423170371385231
21
1.1124398816047911
31
0.
0
LINE
8
0
10
6.455715742770462
20
1.1688101183952089
30
0.
11
6.455715742770462
21
1.1688101183952089
31
0.
0
LINE
8
0
10
6.455715742770462
20
1.3311898816047911
30
0.
11
6.455715742770462
21
1.3311898816047911
31
0.
0
LINE
8
0
10
6.282545371385231
20
2.71875
30
0.
11
6.217454628614769
21
2.71875
31
0.
0
LINE
8
0
10
6.076829628614769
20
2.637560118395209
30
0.
11
6.044284257229538
21
2.581189881604791
31
0.
0
LINE
8
0
10
6.044284257229538
20
2.418810118395209
30
0.
11
6.076829628614769
21
2.362439881604791
31
0.
0
LINE
8
0
10
6.217454628614769
20
2.28125
30
0.
11
6.282545371385231
21
2.28125
31
0.
0
LINE
8
0
10
6.455715742770462
20
2.581189881604791
30
0.
11
6.423170371385231
21
2.637560118395209
31
0.
0
LINE
8
0
10
6.423170371385231
20
2.362439881604791
30
0.
11
6.455715742770462
21
2.418810118395209
31
0.
0
LINE
8
0
10
6.423170371385231
20
2.637560118395209
30
0.
11
6.423170371385231
21
2.637560118395209
31
0.
0
LINE
8
0
10
6.282545371385231
20
2.71875
30
0.
11
6.282545371385231
21
2.71875
31
0.
0
LINE
8
0
10
6.217454628614769
20
2.71875
30
0.
11
6.217454628614769
21
2.71875
31
0.
0
LINE
8
0
10
6.076829628614769
20
2.637560118395209
30
0.
11
6.076829628614769
21
2.637560118395209
31
0.
0
LINE
8
0
10
6.044284257229538
20
2.581189881604791
30
0.
11
6.044284257229538
21
2.581189881604791
31
0.
0
LINE
8
0
10
6.044284257229538
20
2.418810118395209
30
0.
11
6.044284257229538
21
2.418810118395209
31
0.
0
LINE
8
0
10
6.076829628614769
20
2.362439881604791
30
0.
11
6.076829628614769
21
2.362439881604791
31
0.
0
LINE
8
0
10
6.217454628614769
20
2.28125
30
0.
11
6.217454628614769
21
2.28125
31
0.
0
LINE
8
0
10
6.282545371385231
20
2.28125
30
0.
11
6.282545371385231
21
2.28125
31
0.
0
LINE
8
0
10
6.423170371385231
20
2.362439881604791
30
0.
11
6.423170371385231
21
2.362439881604791
31
0.
0
LINE
8
0
10
6.455715742770462
20
2.418810118395209
30
0.
11
6.455715742770462
21
2.418810118395209
31
0.
0
LINE
8
0
10
6.455715742770462
20
2.581189881604791
30
0.
11
6.455715742770462
21
2.581189881604791
31
0.
0
LINE
8
0
10
6.282545371385231
20
3.96875
30
0.
11
6.217454628614769
21
3.96875
31
0.
0
LINE
8
0
10
6.076829628614769
20
3.887560118395209
30
0.
11
6.044284257229538
21
3.831189881604791
31
0.
0
LINE
8
0
10
6.044284257229538
20
3.668810118395209
30
0.
11
6.076829628614769
21
3.612439881604791
31
0.
0
LINE
8
0
10
6.217454628614769
20
3.53125
30
0.
11
6.282545371385231
21
3.53125
31
0.
0
LINE
8
0
10
6.455715742770462
20
3.831189881604791
30
0.
11
6.423170371385231
21
3.887560118395209
31
0.
0
LINE
8
0
10
6.423170371385231
20
3.612439881604791
30
0.
11
6.455715742770462
21
3.668810118395209
31
0.
0
LINE
8
0
10
6.423170371385231
20
3.887560118395209
30
0.
11
6.423170371385231
21
3.887560118395209
31
0.
0
LINE
8
0
10
6.282545371385231
20
3.96875
30
0.
11
6.282545371385231
21
3.96875
31
0.
0
LINE
8
0
10
6.217454628614769
20
3.96875
30
0.
11
6.217454628614769
21
3.96875
31
0.
0
LINE
8
0
10
6.076829628614769
20
3.887560118395209
30
0.
11
6.076829628614769
21
3.887560118395209
31
0.
0
LINE
8
0
10
6.044284257229538
20
3.831189881604791
30
0.
11
6.044284257229538
21
3.831189881604791
31
0.
0
LINE
8
0
10
6.044284257229538
20
3.668810118395209
30
0.
11
6.044284257229538
21
3.668810118395209
31
0.
0
LINE
8
0
10
6.076829628614769
20
3.612439881604791
30
0.
11
6.076829628614769
21
3.612439881604791
31
0.
0
LINE
8
0
10
6.217454628614769
20
3.53125
30
0.
11
6.217454628614769
21
3.53125
31
0.
0
LINE
8
0
10
6.282545371385231
20
3.53125
30
0.
11
6.282545371385231
21
3.53125
31
0.
0
LINE
8
0
10
6.423170371385231
20
3.612439881604791
30
0.
11
6.423170371385231
21
3.612439881604791
31
0.
0
LINE
8
0
10
6.455715742770462
20
3.668810118395209
30
0.
11
6.455715742770462
21
3.668810118395209
31
0.
0
LINE
8
0
10
6.455715742770462
20
3.831189881604791
30
0.
11
6.455715742770462
21
3.831189881604791
31
0.
0
LINE
8
0
10
6.282545371385231
20
5.21875
30
0.
11
6.217454628614769
21
5.21875
31
0.
0
LINE
8
0
10
6.076829628614769
20
5.137560118395209
30
0.
11
6.044284257229538
21
5.081189881604791
31
0.
0
LINE
8
0
10
6.044284257229538
20
4.918810118395209
30
0.
11
6.076829628614769
21
4.862439881604791
31
0.
0
LINE
8
0
10
6.217454628614769
20
4.78125
30
0.
11
6.282545371385231
21
4.78125
31
0.
0
LINE
8
0
10
6.455715742770462
20
5.081189881604791
30
0.
11
6.423170371385231
21
5.137560118395209
31
0.
0
LINE
8
0
10
6.423170371385231
20
4.862439881604791
30
0.
11
6.455715742770462
21
4.918810118395209
31
0.
0
LINE
8
0
10
6.423170371385231
20
5.137560118395209
30
0.
11
6.423170371385231
21
5.137560118395209
31
0.
0
LINE
8
0
10
6.282545371385231
20
5.21875
30
0.
11
6.282545371385231
21
5.21875
31
0.
0
LINE
8
0
10
6.217454628614769
20
5.21875
30
0.
11
6.217454628614769
21
5.21875
31
0.
0
LINE
8
0
10
6.076829628614769
20
5.137560118395209
30
0.
11
6.076829628614769
21
5.137560118395209
31
0.
0
LINE
8
0
10
6.044284257229538
20
5.081189881604791
30
0.
11
6.044284257229538
21
5.081189881604791
31
0.
0
LINE
8
0
10
6.044284257229538
20
4.918810118395209
30
0.
11
6.044284257229538
21
4.918810118395209
31
0.
0
LINE
8
0
10
6.076829628614769
20
4.862439881604791
30
0.
11
6.076829628614769
21
4.862439881604791
31
0.
0
LINE
8
0
10
6.217454628614769
20
4.78125
30
0.
11
6.217454628614769
21
4.78125
31
0.
0
LINE
8
0
10
6.282545371385231
20
4.78125
30
0.
11
6.282545371385231
21
4.78125
31
0.
0
LINE
8
0
10
6.423170371385231
20
4.862439881604791
30
0.
11
6.423170371385231
21
4.862439881604791
31
0.
0
LINE
8
0
10
6.455715742770462
20
4.918810118395209
30
0.
11
6.455715742770462
21
4.918810118395209
31
0.
0
LINE
8
0
10
6.455715742770462
20
5.081189881604791
30
0.
11
6.455715742770462
21
5.081189881604791
31
0.
0
LINE
8
0
10
6.282545371385231
20
6.46875
30
0.
11
6.217454628614769
21
6.46875
31
0.
0
LINE
8
0
10
6.076829628614769
20
6.387560118395209
30
0.
11
6.044284257229538
21
6.331189881604791
31
0.
0
LINE
8
0
10
6.044284257229538
20
6.168810118395209
30
0.
11
6.076829628614769
21
6.112439881604791
31
0.
0
LINE
8
0
10
6.217454628614769
20
6.03125
30
0.
11
6.282545371385231
21
6.03125
31
0.
0
LINE
8
0
10
6.455715742770462
20
6.331189881604791
30
0.
11
6.423170371385231
21
6.387560118395209
31
0.
0
LINE
8
0
10
6.423170371385231
20
6.112439881604791
30
0.
11
6.455715742770462
21
6.168810118395209
31
0.
0
LINE
8
0
10
6.423170371385231
20
6.387560118395209
30
0.
11
6.423170371385231
21
6.387560118395209
31
0.
0
LINE
8
0
10
6.282545371385231
20
6.46875
30
0.
11
6.282545371385231
21
6.46875
31
0.
0
LINE
8
0
10
6.217454628614769
20
6.46875
30
0.
11
6.217454628614769
21
6.46875
31
0.
0
LINE
8
0
10
6.076829628614769
20
6.387560118395209
30
0.
11
6.076829628614769
21
6.387560118395209
31
0.
0
LINE
8
0
10
6.044284257229538
20
6.331189881604791
30
0.
11
6.044284257229538
21
6.331189881604791
31
0.
0
LINE
8
0
10
6.044284257229538
20
6.168810118395209
30
0.
11
6.044284257229538
21
6.168810118395209
31
0.
0
LINE
8
0
10
6.076829628614769
20
6.112439881604791
30
0.
11
6.076829628614769
21
6.112439881604791
31
0.
0
LINE
8
0
10
6.217454628614769
20
6.03125
30
0.
11
6.217454628614769
21
6.03125
31
0.
0
LINE
8
0
10
6.282545371385231
20
6.03125
30
0.
11
6.282545371385231
21
6.03125
31
0.
0
LINE
8
0
10
6.423170371385231
20
6.112439881604791
30
0.
11
6.423170371385231
21
6.112439881604791
31
0.
0
LINE
8
0
10
6.455715742770462
20
6.168810118395209
30
0.
11
6.455715742770462
21
6.168810118395209
31
0.
0
LINE
8
0
10
6.455715742770462
20
6.331189881604791
30
0.
11
6.455715742770462
21
6.331189881604791
31
0.
0
LINE
8
0
10
6.282545371385231
20
7.71875
30
0.
11
6.217454628614769
21
7.71875
31
0.
0
LINE
8
0
10
6.076829628614769
20
7.637560118395209
30
0.
11
6.044284257229538
21
7.581189881604791
31
0.
0
LINE
8
0
10
6.044284257229538
20
7.418810118395209
30
0.
11
6.076829628614769
21
7.362439881604791
31
0.
0
LINE
8
0
10
6.217454628614769
20
7.28125
30
0.
11
6.282545371385231
21
7.28125
31
0.
0
LINE
8
0
10
6.455715742770462
20
7.581189881604791
30
0.
11
6.423170371385231
21
7.637560118395209
31
0.
0
LINE
8
0
10
6.423170371385231
20
7.362439881604791
30
0.
11
6.455715742770462
21
7.418810118395209
31
0.
0
LINE
8
0
10
6.423170371385231
20
7.637560118395209
30
0.
11
6.423170371385231
21
7.637560118395209
31
0.
0
LINE
8
0
10
6.282545371385231
20
7.71875
30
0.
11
6.282545371385231
21
7.71875
31
0.
0
LINE
8
0
10
6.217454628614769
20
7.71875
30
0.
11
6.217454628614769
21
7.71875
31
0.
0
LINE
8
0
10
6.076829628614769
20
7.637560118395209
30
0.
11
6.076829628614769
21
7.637560118395209
31
0.
0
LINE
8
0
10
6.044284257229538
20
7.581189881604791
30
0.
11
6.044284257229538
21
7.581189881604791
31
0.
0
LINE
8
0
10
6.044284257229538
20
7.418810118395209
30
0.
11
6.044284257229538
21
7.418810118395209
31
0.
0
LINE
8
0
10
6.076829628614769
20
7.362439881604791
30
0.
11
6.076829628614769
21
7.362439881604791
31
0.
0
LINE
8
0
10
6.217454628614769
20
7.28125
30
0.
11
6.217454628614769
21
7.28125
31
0.
0
LINE
8
0
10
6.282545371385231
20
7.28125
30
0.
11
6.282545371385231
21
7.28125
31
0.
0
LINE
8
0
10
6.423170371385231
20
7.362439881604791
30
0.
11
6.423170371385231
21
7.362439881604791
31
0.
0
LINE
8
0
10
6.455715742770462
20
7.418810118395209
30
0.
11
6.455715742770462
21
7.418810118395209
31
0.
0
LINE
8
0
10
6.455715742770462
20
7.581189881604791
30
0.
11
6.455715742770462
21
7.581189881604791
31
0.
0
LINE
8
0
10
6.282545371385231
20
8.96875
30
0.
11
6.217454628614769
21
8.96875
31
0.
0
LINE
8
0
10
6.076829628614769
20
8.887560118395209
30
0.
11
6.044284257229538
21
8.831189881604791
31
0.
0
LINE
8
0
10
6.044284257229538
20
8.668810118395209
30
0.
11
6.076829628614769
21
8.612439881604791
31
0.
0
LINE
8
0
10
6.217454628614769
20
8.53125
30
0.
11
6.282545371385231
21
8.53125
31
0.
0
LINE
8
0
10
6.455715742770462
20
8.831189881604791
30
0.
11
6.423170371385231
21
8.887560118395209
31
0.
0
LINE
8
0
10
6.423170371385231
20
8.612439881604791
30
0.
11
6.455715742770462
21
8.668810118395209
31
0.
0
LINE
8
0
10
6.423170371385231
20
8.887560118395209
30
0.
11
6.423170371385231
21
8.887560118395209
31
0.
0
LINE
8
0
10
6.282545371385231
20
8.96875
30
0.
11
6.282545371385231
21
8.96875
31
0.
0
LINE
8
0
10
6.217454628614769
20
8.96875
30
0.
11
6.217454628614769
21
8.96875
31
0.
0
LINE
8
0
10
6.076829628614769
20
8.887560118395209
30
0.
11
6.076829628614769
21
8.887560118395209
31
0.
0
LINE
8
0
10
6.044284257229538
20
8.831189881604791
30
0.
11
6.044284257229538
21
8.831189881604791
31
0.
0
LINE
8
0
10
6.044284257229538
20
8.668810118395209
30
0.
11
6.044284257229538
21
8.668810118395209
31
0.
0
LINE
8
0
10
6.076829628614769
20
8.612439881604791
30
0.
11
6.076829628614769
21
8.612439881604791
31
0.
0
LINE
8
0
10
6.217454628614769
20
8.53125
30
0.
11
6.217454628614769
21
8.53125
31
0.
0
LINE
8
0
10
6.282545371385231
20
8.53125
30
0.
11
6.282545371385231
21
8.53125
31
0.
0
LINE
8
0
10
6.423170371385231
20
8.612439881604791
30
0.
11
6.423170371385231
21
8.612439881604791
31
0.
0
LINE
8
0
10
6.455715742770462
20
8.668810118395209
30
0.
11
6.455715742770462
21
8.668810118395209
31
0.
0
LINE
8
0
10
6.455715742770462
20
8.831189881604791
30
0.
11
6.455715742770462
21
8.831189881604791
31
0.
0
LINE
8
0
10
7.532545371385231
20
1.46875
30
0.
11
7.467454628614769
21
1.46875
31
0.
0
LINE
8
0
10
7.326829628614769
20
1.3875601183952089
30
0.
11
7.294284257229538
21
1.3311898816047911
31
0.
0
LINE
8
0
10
7.294284257229538
20
1.1688101183952089
30
0.
11
7.326829628614769
21
1.1124398816047911
31
0.
0
LINE
8
0
10
7.467454628614769
20
1.03125
30
0.
11
7.532545371385231
21
1.03125
31
0.
0
LINE
8
0
10
7.705715742770462
20
1.3311898816047911
30
0.
11
7.673170371385231
21
1.3875601183952089
31
0.
0
LINE
8
0
10
7.673170371385231
20
1.1124398816047911
30
0.
11
7.705715742770462
21
1.1688101183952089
31
0.
0
LINE
8
0
10
7.673170371385231
20
1.3875601183952089
30
0.
11
7.673170371385231
21
1.3875601183952089
31
0.
0
LINE
8
0
10
7.532545371385231
20
1.46875
30
0.
11
7.532545371385231
21
1.46875
31
0.
0
LINE
8
0
10
7.467454628614769
20
1.46875
30
0.
11
7.467454628614769
21
1.46875
31
0.
0
LINE
8
0
10
7.326829628614769
20
1.3875601183952089
30
0.
11
7.326829628614769
21
1.3875601183952089
31
0.
0
LINE
8
0
10
7.294284257229538
20
1.3311898816047911
30
0.
11
7.294284257229538
21
1.3311898816047911
31
0.
0
LINE
8
0
10
7.294284257229538
20
1.1688101183952089
30
0.
11
7.294284257229538
21
1.1688101183952089
31
0.
0
LINE
8
0
10
7.326829628614769
20
1.1124398816047911
30
0.
11
7.326829628614769
21
1.1124398816047911
31
0.
0
LINE
8
0
10
7.467454628614769
20
1.03125
30
0.
11
7.467454628614769
21
1.03125
31
0.
0
LINE
8
0
10
7.532545371385231
20
1.03125
30
0.
11
7.532545371385231
21
1.03125
31
0.
0
LINE
8
0
10
7.673170371385231
20
1.1124398816047911
30
0.
11
7.673170371385231
21
1.1124398816047911
31
0.
0
LINE
8
0
10
7.705715742770462
20
1.1688101183952089
30
0.
11
7.705715742770462
21
1.1688101183952089
31
0.
0
LINE
8
0
10
7.705715742770462
20
1.3311898816047911
30
0.
11
7.705715742770462
21
1.3311898816047911
31
0.
0
LINE
8
0
10
7.532545371385231
20
2.71875
30
0.
11
7.467454628614769
21
2.71875
31
0.
0
LINE
8
0
10
7.326829628614769
20
2.637560118395209
30
0.
11
7.294284257229538
21
2.581189881604791
31
0.
0
LINE
8
0
10
7.294284257229538
20
2.418810118395209
30
0.
11
7.326829628614769
21
2.362439881604791
31
0.
0
LINE
8
0
10
7.467454628614769
20
2.28125
30
0.
11
7.532545371385231
21
2.28125
31
0.
0
LINE
8
0
10
7.705715742770462
20
2.581189881604791
30
0.
11
7.673170371385231
21
2.637560118395209
31
0.
0
LINE
8
0
10
7.673170371385231
20
2.362439881604791
30
0.
11
7.705715742770462
21
2.418810118395209
31
0.
0
LINE
8
0
10
7.673170371385231
20
2.637560118395209
30
0.
11
7.673170371385231
21
2.637560118395209
31
0.
0
LINE
8
0
10
7.532545371385231
20
2.71875
30
0.
11
7.532545371385231
21
2.71875
31
0.
0
LINE
8
0
10
7.467454628614769
20
2.71875
30
0.
11
7.467454628614769
21
2.71875
31
0.
0
LINE
8
0
10
7.326829628614769
20
2.637560118395209
30
0.
11
7.326829628614769
21
2.637560118395209
31
0.
0
LINE
8
0
10
7.294284257229538
20
2.581189881604791
30
0.
11
7.294284257229538
21
2.581189881604791
31
0.
0
LINE
8
0
10
7.294284257229538
20
2.418810118395209
30
0.
11
7.294284257229538
21
2.418810118395209
31
0.
0
LINE
8
0
10
7.326829628614769
20
2.362439881604791
30
0.
11
7.326829628614769
21
2.362439881604791
31
0.
0
LINE
8
0
10
7.467454628614769
20
2.28125
30
0.
11
7.467454628614769
21
2.28125
31
0.
0
LINE
8
0
10
7.532545371385231
20
2.28125
30
0.
11
7.532545371385231
21
2.28125
31
0.
0
LINE
8
0
10
7.673170371385231
20
2.362439881604791
30
0.
11
7.673170371385231
21
2.362439881604791
31
0.
0
LINE
8
0
10
7.705715742770462
20
2.418810118395209
30
0.
11
7.705715742770462
21
2.418810118395209
31
0.
0
LINE
8
0
10
7.705715742770462
20
2.581189881604791
30
0.
11
7.705715742770462
21
2.581189881604791
31
0.
0
LINE
8
0
10
7.532545371385231
20
3.96875
30
0.
11
7.467454628614769
21
3.96875
31
0.
0
LINE
8
0
10
7.326829628614769
20
3.887560118395209
30
0.
11
7.294284257229538
21
3.831189881604791
31
0.
0
LINE
8
0
10
7.294284257229538
20
3.668810118395209
30
0.
11
7.326829628614769
21
3.612439881604791
31
0.
0
LINE
8
0
10
7.467454628614769
20
3.53125
30
0.
11
7.532545371385231
21
3.53125
31
0.
0
LINE
8
0
10
7.705715742770462
20
3.831189881604791
30
0.
11
7.673170371385231
21
3.887560118395209
31
0.
0
LINE
8
0
10
7.673170371385231
20
3.612439881604791
30
0.
11
7.705715742770462
21
3.668810118395209
31
0.
0
LINE
8
0
10
7.673170371385231
20
3.887560118395209
30
0.
11
7.673170371385231
21
3.887560118395209
31
0.
0
LINE
8
0
10
7.532545371385231
20
3.96875
30
0.
11
7.532545371385231
21
3.96875
31
0.
0
LINE
8
0
10
7.467454628614769
20
3.96875
30
0.
11
7.467454628614769
21
3.96875
31
0.
0
LINE
8
0
10
7.326829628614769
20
3.887560118395209
30
0.
11
7.326829628614769
21
3.887560118395209
31
0.
0
LINE
8
0
10
7.294284257229538
20
3.831189881604791
30
0.
11
7.294284257229538
21
3.831189881604791
31
0.
0
LINE
8
0
10
7.294284257229538
20
3.668810118395209
30
0.
11
7.294284257229538
21
3.668810118395209
31
0.
0
LINE
8
0
10
7.326829628614769
20
3.612439881604791
30
0.
11
7.326829628614769
21
3.612439881604791
31
0.
0
LINE
8
0
10
7.467454628614769
20
3.53125
30
0.
11
7.467454628614769
21
3.53125
31
0.
0
LINE
8
0
10
7.532545371385231
20
3.53125
30
0.
11
7.532545371385231
21
3.53125
31
0.
0
LINE
8
0
10
7.673170371385231
20
3.612439881604791
30
0.
11
7.673170371385231
21
3.612439881604791
31
0.
0
LINE
8
0
10
7.705715742770462
20
3.668810118395209
30
0.
11
7.705715742770462
21
3.668810118395209
31
0.
0
LINE
8
0
10
7.705715742770462
20
3.831189881604791
30
0.
11
7.705715742770462
21
3.831189881604791
31
0.
0
LINE
8
0
10
7.532545371385231
20
5.21875
30
0.
11
7.467454628614769
21
5.21875
31
0.
0
LINE
8
0
10
7.326829628614769
20
5.137560118395209
30
0.
11
7.294284257229538
21
5.081189881604791
31
0.
0
LINE
8
0
10
7.294284257229538
20
4.918810118395209
30
0.
11
7.326829628614769
21
4.862439881604791
31
0.
0
LINE
8
0
10
7.467454628614769
20
4.78125
30
0.
11
7.532545371385231
21
4.78125
31
0.
0
LINE
8
0
10
7.705715742770462
20
5.081189881604791
30
0.
11
7.673170371385231
21
5.137560118395209
31
0.
0
LINE
8
0
10
7.673170371385231
20
4.862439881604791
30
0.
11
7.705715742770462
21
4.918810118395209
31
0.
0
LINE
8
0
10
7.673170371385231
20
5.137560118395209
30
0.
11
7.673170371385231
21
5.137560118395209
31
0.
0
LINE
8
0
10
7.532545371385231
20
5.21875
30
0.
11
7.532545371385231
21
5.21875
31
0.
0
LINE
8
0
10
7.467454628614769
20
5.21875
30
0.
11
7.467454628614769
21
5.21875
31
0.
0
LINE
8
0
10
7.326829628614769
20
5.137560118395209
30
0.
11
7.326829628614769
21
5.137560118395209
31
0.
0
LINE
8
0
10
7.294284257229538
20
5.081189881604791
30
0.
11
7.294284257229538
21
5.081189881604791
31
0.
0
LINE
8
0
10
7.294284257229538
20
4.918810118395209
30
0.
11
7.294284257229538
21
4.918810118395209
31
0.
0
LINE
8
0
10
7.326829628614769
20
4.862439881604791
30
0.
11
7.326829628614769
21
4.862439881604791
31
0.
0
LINE
8
0
10
7.467454628614769
20
4.78125
30
0.
11
7.467454628614769
21
4.78125
31
0.
0
LINE
8
0
10
7.532545371385231
20
4.78125
30
0.
11
7.532545371385231
21
4.78125
31
0.
0
LINE
8
0
10
7.673170371385231
20
4.862439881604791
30
0.
11
7.673170371385231
21
4.862439881604791
31
0.
0
LINE
8
0
10
7.705715742770462
20
4.918810118395209
30
0.
11
7.705715742770462
21
4.918810118395209
31
0.
0
LINE
8
0
10
7.705715742770462
20
5.081189881604791
30
0.
11
7.705715742770462
21
5.081189881604791
31
0.
0
LINE
8
0
10
7.532545371385231
20
6.46875
30
0.
11
7.467454628614769
21
6.46875
31
0.
0
LINE
8
0
10
7.326829628614769
20
6.387560118395209
30
0.
11
7.294284257229538
21
6.331189881604791
31
0.
0
LINE
8
0
10
7.294284257229538
20
6.168810118395209
30
0.
11
7.326829628614769
21
6.112439881604791
31
0.
0
LINE
8
0
10
7.467454628614769
20
6.03125
30
0.
11
7.532545371385231
21
6.03125
31
0.
0
LINE
8
0
10
7.705715742770462
20
6.331189881604791
30
0.
11
7.673170371385231
21
6.387560118395209
31
0.
0
LINE
8
0
10
7.673170371385231
20
6.112439881604791
30
0.
11
7.705715742770462
21
6.168810118395209
31
0.
0
LINE
8
0
10
7.673170371385231
20
6.387560118395209
30
0.
11
7.673170371385231
21
6.387560118395209
31
0.
0
LINE
8
0
10
7.532545371385231
20
6.46875
30
0.
11
7.532545371385231
21
6.46875
31
0.
0
LINE
8
0
10
7.467454628614769
20
6.46875
30
0.
11
7.467454628614769
21
6.46875
31
0.
0
LINE
8
0
10
7.326829628614769
20
6.387560118395209
30
0.
11
7.326829628614769
21
6.387560118395209
31
0.
0
LINE
8
0
10
7.294284257229538
20
6.331189881604791
30
0.
11
7.294284257229538
21
6.331189881604791
31
0.
0
LINE
8
0
10
7.294284257229538
20
6.168810118395209
30
0.
11
7.294284257229538
21
6.168810118395209
31
0.
0
LINE
8
0
10
7.326829628614769
20
6.112439881604791
30
0.
11
7.326829628614769
21
6.112439881604791
31
0.
0
LINE
8
0
10
7.467454628614769
20
6.03125
30
0.
11
7.467454628614769
21
6.03125
31
0.
0
LINE
8
0
10
7.532545371385231
20
6.03125
30
0.
11
7.532545371385231
21
6.03125
31
0.
0
LINE
8
0
10
7.673170371385231
20
6.112439881604791
30
0.
11
7.673170371385231
21
6.112439881604791
31
0.
0
LINE
8
0
10
7.705715742770462
20
6.168810118395209
30
0.
11
7.705715742770462
21
6.168810118395209
31
0.
0
LINE
8
0
10
7.705715742770462
20
6.331189881604791
30
0.
11
7.705715742770462
21
6.331189881604791
31
0.
0
LINE
8
0
10
7.532545371385231
20
7.71875
30
0.
11
7.467454628614769
21
7.71875
31
0.
0
LINE
8
0
10
7.326829628614769
20
7.637560118395209
30
0.
11
7.294284257229538
21
7.581189881604791
31
0.
0
LINE
8
0
10
7.294284257229538
20
7.418810118395209
30
0.
11
7.326829628614769
21
7.362439881604791
31
0.
0
LINE
8
0
10
7.467454628614769
20
7.28125
30
0.
11
7.532545371385231
21
7.28125
31
0.
0
LINE
8
0
10
7.705715742770462
20
7.581189881604791
30
0.
11
7.673170371385231
21
7.637560118395209
31
0.
0
LINE
8
0
10
7.673170371385231
20
7.362439881604791
30
0.
11
7.705715742770462
21
7.418810118395209
31
0.
0
LINE
8
0
10
7.673170371385231
20
7.637560118395209
30
0.
11
7.673170371385231
21
7.637560118395209
31
0.
0
LINE
8
0
10
7.532545371385231
20
7.71875
30
0.
11
7.532545371385231
21
7.71875
31
0.
0
LINE
8
0
10
7.467454628614769
20
7.71875
30
0.
11
7.467454628614769
21
7.71875
31
0.
0
LINE
8
0
10
7.326829628614769
20
7.637560118395209
30
0.
11
7.326829628614769
21
7.637560118395209
31
0.
0
LINE
8
0
10
7.294284257229538
20
7.581189881604791
30
0.
11
7.294284257229538
21
7.581189881604791
31
0.
0
LINE
8
0
10
7.294284257229538
20
7.418810118395209
30
0.
11
7.294284257229538
21
7.418810118395209
31
0.
0
LINE
8
0
10
7.326829628614769
20
7.362439881604791
30
0.
11
7.326829628614769
21
7.362439881604791
31
0.
0
LINE
8
0
10
7.467454628614769
20
7.28125
30
0.
11
7.467454628614769
21
7.28125
31
0.
0
LINE
8
0
10
7.532545371385231
20
7.28125
30
0.
11
7.532545371385231
21
7.28125
31
0.
0
LINE
8
0
10
7.673170371385231
20
7.362439881604791
30
0.
11
7.673170371385231
21
7.362439881604791
31
0.
0
LINE
8
0
10
7.705715742770462
20
7.418810118395209
30
0.
11
7.705715742770462
21
7.418810118395209
31
0.
0
LINE
8
0
10
7.705715742770462
20
7.581189881604791
30
0.
11
7.705715742770462
21
7.581189881604791
31
0.
0
LINE
8
0
10
7.532545371385231
20
8.96875
30
0.
11
7.467454628614769
21
8.96875
31
0.
0
LINE
8
0
10
7.326829628614769
20
8.887560118395209
30
0.
11
7.294284257229538
21
8.831189881604791
31
0.
0
LINE
8
0
10
7.294284257229538
20
8.668810118395209
30
0.
11
7.326829628614769
21
8.612439881604791
31
0.
0
LINE
8
0
10
7.467454628614769
20
8.53125
30
0.
11
7.532545371385231
21
8.53125
31
0.
0
LINE
8
0
10
7.705715742770462
20
8.831189881604791
30
0.
11
7.673170371385231
21
8.887560118395209
31
0.
0
LINE
8
0
10
7.673170371385231
20
8.612439881604791
30
0.
11
7.705715742770462
21
8.668810118395209
31
0.
0
LINE
8
0
10
7.673170371385231
20
8.887560118395209
30
0.
11
7.673170371385231
21
8.887560118395209
31
0.
0
LINE
8
0
10
7.532545371385231
20
8.96875
30
0.
11
7.532545371385231
21
8.96875
31
0.
0
LINE
8
0
10
7.467454628614769
20
8.96875
30
0.
11
7.467454628614769
21
8.96875
31
0.
0
LINE
8
0
10
7.326829628614769
20
8.887560118395209
30
0.
11
7.326829628614769
21
8.887560118395209
31
0.
0
LINE
8
0
10
7.294284257229538
20
8.831189881604791
30
0.
11
7.294284257229538
21
8.831189881604791
31
0.
0
LINE
8
0
10
7.294284257229538
20
8.668810118395209
30
0.
11
7.294284257229538
21
8.668810118395209
31
0.
0
LINE
8
0
10
7.326829628614769
20
8.612439881604791
30
0.
11
7.326829628614769
21
8.612439881604791
31
0.
0
LINE
8
0
10
7.467454628614769
20
8.53125
30
0.
11
7.467454628614769
21
8.53125
31
0.
0
LINE
8
0
10
7.532545371385231
20
8.53125
30
0.
11
7.532545371385231
21
8.53125
31
0.
0
LINE
8
0
10
7.673170371385231
20
8.612439881604791
30
0.
11
7.673170371385231
21
8.612439881604791
31
0.
0
LINE
8
0
10
7.705715742770462
20
8.668810118395209
30
0.
11
7.705715742770462
21
8.668810118395209
31
0.
0
LINE
8
0
10
7.705715742770462
20
8.831189881604791
30
0.
11
7.705715742770462
21
8.831189881604791
31
0.
0
LINE
8
0
10
8.78254537138523
20
1.46875
30
0.
11
8.71745462861477
21
1.46875
31
0.
0
LINE
8
0
10
8.57682962861477
20
1.3875601183952089
30
0.
11
8.544284257229538
21
1.3311898816047911
31
0.
0
LINE
8
0
10
8.544284257229538
20
1.1688101183952089
30
0.
11
8.57682962861477
21
1.1124398816047911
31
0.
0
LINE
8
0
10
8.71745462861477
20
1.03125
30
0.
11
8.78254537138523
21
1.03125
31
0.
0
LINE
8
0
10
8.955715742770462
20
1.3311898816047911
30
0.
11
8.92317037138523
21
1.3875601183952089
31
0.
0
LINE
8
0
10
8.92317037138523
20
1.1124398816047911
30
0.
11
8.955715742770462
21
1.1688101183952089
31
0.
0
LINE
8
0
10
8.92317037138523
20
1.3875601183952089
30
0.
11
8.92317037138523
21
1.3875601183952089
31
0.
0
LINE
8
0
10
8.78254537138523
20
1.46875
30
0.
11
8.78254537138523
21
1.46875
31
0.
0
LINE
8
0
10
8.71745462861477
20
1.46875
30
0.
11
8.71745462861477
21
1.46875
31
0.
0
LINE
8
0
10
8.57682962861477
20
1.3875601183952089
30
0.
11
8.57682962861477
21
1.3875601183952089
31
0.
0
LINE
8
0
10
8.544284257229538
20
1.3311898816047911
30
0.
11
8.544284257229538
21
1.3311898816047911
31
0.
0
LINE
8
0
10
8.544284257229538
20
1.1688101183952089
30
0.
11
8.544284257229538
21
1.1688101183952089
31
0.
0
LINE
8
0
10
8.57682962861477
20
1.1124398816047911
30
0.
11
8.57682962861477
21
1.1124398816047911
31
0.
0
LINE
8
0
10
8.71745462861477
20
1.03125
30
0.
11
8.71745462861477
21
1.03125
31
0.
0
LINE
8
0
10
8.78254537138523
20
1.03125
30
0.
11
8.78254537138523
21
1.03125
31
0.
0
LINE
8
0
10
8.92317037138523
20
1.1124398816047911
30
0.
11
8.92317037138523
21
1.1124398816047911
31
0.
0
LINE
8
0
10
8.955715742770462
20
1.1688101183952089
30
0.
11
8.955715742770462
21
1.1688101183952089
31
0.
0
LINE
8
0
10
8.955715742770462
20
1.3311898816047911
30
0.
11
8.955715742770462
21
1.3311898816047911
31
0.
0
LINE
8
0
10
8.78254537138523
20
2.71875
30
0.
11
8.71745462861477
21
2.71875
31
0.
0
LINE
8
0
10
8.57682962861477
20
2.637560118395209
30
0.
11
8.544284257229538
21
2.581189881604791
31
0.
0
LINE
8
0
10
8.544284257229538
20
2.418810118395209
30
0.
11
8.57682962861477
21
2.362439881604791
31
0.
0
LINE
8
0
10
8.71745462861477
20
2.28125
30
0.
11
8.78254537138523
21
2.28125
31
0.
0
LINE
8
0
10
8.955715742770462
20
2.581189881604791
30
0.
11
8.92317037138523
21
2.637560118395209
31
0.
0
LINE
8
0
10
8.92317037138523
20
2.362439881604791
30
0.
11
8.955715742770462
21
2.418810118395209
31
0.
0
LINE
8
0
10
8.92317037138523
20
2.637560118395209
30
0.
11
8.92317037138523
21
2.637560118395209
31
0.
0
LINE
8
0
10
8.78254537138523
20
2.71875
30
0.
11
8.78254537138523
21
2.71875
31
0.
0
LINE
8
0
10
8.71745462861477
20
2.71875
30
0.
11
8.71745462861477
21
2.71875
31
0.
0
LINE
8
0
10
8.57682962861477
20
2.637560118395209
30
0.
11
8.57682962861477
21
2.637560118395209
31
0.
0
LINE
8
0
10
8.544284257229538
20
2.581189881604791
30
0.
11
8.544284257229538
21
2.581189881604791
31
0.
0
LINE
8
0
10
8.544284257229538
20
2.418810118395209
30
0.
11
8.544284257229538
21
2.418810118395209
31
0.
0
LINE
8
0
10
8.57682962861477
20
2.362439881604791
30
0.
11
8.57682962861477
21
2.362439881604791
31
0.
0
LINE
8
0
10
8.71745462861477
20
2.28125
30
0.
11
8.71745462861477
21
2.28125
31
0.
0
LINE
8
0
10
8.78254537138523
20
2.28125
30
0.
11
8.78254537138523
21
2.28125
31
0.
0
LINE
8
0
10
8.92317037138523
20
2.362439881604791
30
0.
11
8.92317037138523
21
2.362439881604791
31
0.
0
LINE
8
0
10
8.955715742770462
20
2.418810118395209
30
0.
11
8.955715742770462
21
2.418810118395209
31
0.
0
LINE
8
0
10
8.955715742770462
20
2.581189881604791
30
0.
11
8.955715742770462
21
2.581189881604791
31
0.
0
LINE
8
0
10
8.78254537138523
20
3.96875
30
0.
11
8.71745462861477
21
3.96875
31
0.
0
LINE
8
0
10
8.57682962861477
20
3.887560118395209
30
0.
11
8.544284257229538
21
3.831189881604791
31
0.
0
LINE
8
0
10
8.544284257229538
20
3.668810118395209
30
0.
11
8.57682962861477
21
3.612439881604791
31
0.
0
LINE
8
0
10
8.71745462861477
20
3.53125
30
0.
11
8.78254537138523
21
3.53125
31
0.
0
LINE
8
0
10
8.955715742770462
20
3.831189881604791
30
0.
11
8.92317037138523
21
3.887560118395209
31
0.
0
LINE
8
0
10
8.92317037138523
20
3.612439881604791
30
0.
11
8.955715742770462
21
3.668810118395209
31
0.
0
LINE
8
0
10
8.92317037138523
20
3.887560118395209
30
0.
11
8.92317037138523
21
3.887560118395209
31
0.
0
LINE
8
0
10
8.78254537138523
20
3.96875
30
0.
11
8.78254537138523
21
3.96875
31
0.
0
LINE
8
0
10
8.71745462861477
20
3.96875
30
0.
11
8.71745462861477
21
3.96875
31
0.
0
LINE
8
0
10
8.57682962861477
20
3.887560118395209
30
0.
11
8.57682962861477
21
3.887560118395209
31
0.
0
LINE
8
0
10
8.544284257229538
20
3.831189881604791
30
0.
11
8.544284257229538
21
3.831189881604791
31
0.
0
LINE
8
0
10
8.544284257229538
20
3.668810118395209
30
0.
11
8.544284257229538
21
3.668810118395209
31
0.
0
LINE
8
0
10
8.57682962861477
20
3.612439881604791
30
0.
11
8.57682962861477
21
3.612439881604791
31
0.
0
LINE
8
0
10
8.71745462861477
20
3.53125
30
0.
11
8.71745462861477
21
3.53125
31
0.
0
LINE
8
0
10
8.78254537138523
20
3.53125
30
0.
11
8.78254537138523
21
3.53125
31
0.
0
LINE
8
0
10
8.92317037138523
20
3.612439881604791
30
0.
11
8.92317037138523
21
3.612439881604791
31
0.
0
LINE
8
0
10
8.955715742770462
20
3.668810118395209
30
0.
11
8.955715742770462
21
3.668810118395209
31
0.
0
LINE
8
0
10
8.955715742770462
20
3.831189881604791
30
0.
11
8.955715742770462
21
3.831189881604791
31
0.
0
LINE
8
0
10
8.78254537138523
20
5.21875
30
0.
11
8.71745462861477
21
5.21875
31
0.
0
LINE
8
0
10
8.57682962861477
20
5.137560118395209
30
0.
11
8.544284257229538
21
5.081189881604791
31
0.
0
LINE
8
0
10
8.544284257229538
20
4.918810118395209
30
0.
11
8.57682962861477
21
4.862439881604791
31
0.
0
LINE
8
0
10
8.71745462861477
20
4.78125
30
0.
11
8.78254537138523
21
4.78125
31
0.
0
LINE
8
0
10
8.955715742770462
20
5.081189881604791
30
0.
11
8.92317037138523
21
5.137560118395209
31
0.
0
LINE
8
0
10
8.92317037138523
20
4.862439881604791
30
0.
11
8.955715742770462
21
4.918810118395209
31
0.
0
LINE
8
0
10
8.92317037138523
20
5.137560118395209
30
0.
11
8.92317037138523
21
5.137560118395209
31
0.
0
LINE
8
0
10
8.78254537138523
20
5.21875
30
0.
11
8.78254537138523
21
5.21875
31
0.
0
LINE
8
0
10
8.71745462861477
20
5.21875
30
0.
11
8.71745462861477
21
5.21875
31
0.
0
LINE
8
0
10
8.57682962861477
20
5.137560118395209
30
0.
11
8.57682962861477
21
5.137560118395209
31
0.
0
LINE
8
0
10
8.544284257229538
20
5.081189881604791
30
0.
11
8.544284257229538
21
5.081189881604791
31
0.
0
LINE
8
0
10
8.544284257229538
20
4.918810118395209
30
0.
11
8.544284257229538
21
4.918810118395209
31
0.
0
LINE
8
0
10
8.57682962861477
20
4.862439881604791
30
0.
11
8.57682962861477
21
4.862439881604791
31
0.
0
LINE
8
0
10
8.71745462861477
20
4.78125
30
0.
11
8.71745462861477
21
4.78125
31
0.
0
LINE
8
0
10
8.78254537138523
20
4.78125
30
0.
11
8.78254537138523
21
4.78125
31
0.
0
LINE
8
0
10
8.92317037138523
20
4.862439881604791
30
0.
11
8.92317037138523
21
4.862439881604791
31
0.
0
LINE
8
0
10
8.955715742770462
20
4.918810118395209
30
0.
11
8.955715742770462
21
4.918810118395209
31
0.
0
LINE
8
0
10
8.955715742770462
20
5.081189881604791
30
0.
11
8.955715742770462
21
5.081189881604791
31
0.
0
LINE
8
0
10
8.78254537138523
20
6.46875
30
0.
11
8.71745462861477
21
6.46875
31
0.
0
LINE
8
0
10
8.57682962861477
20
6.387560118395209
30
0.
11
8.544284257229538
21
6.331189881604791
31
0.
0
LINE
8
0
10
8.544284257229538
20
6.168810118395209
30
0.
11
8.57682962861477
21
6.112439881604791
31
0.
0
LINE
8
0
10
8.71745462861477
20
6.03125
30
0.
11
8.78254537138523
21
6.03125
31
0.
0
LINE
8
0
10
8.955715742770462
20
6.331189881604791
30
0.
11
8.92317037138523
21
6.387560118395209
31
0.
0
LINE
8
0
10
8.92317037138523
20
6.112439881604791
30
0.
11
8.955715742770462
21
6.168810118395209
31
0.
0
LINE
8
0
10
8.92317037138523
20
6.387560118395209
30
0.
11
8.92317037138523
21
6.387560118395209
31
0.
0
LINE
8
0
10
8.78254537138523
20
6.46875
30
0.
11
8.78254537138523
21
6.46875
31
0.
0
LINE
8
0
10
8.71745462861477
20
6.46875
30
0.
11
8.71745462861477
21
6.46875
31
0.
0
LINE
8
0
10
8.57682962861477
20
6.387560118395209
30
0.
11
8.57682962861477
21
6.387560118395209
31
0.
0
LINE
8
0
10
8.544284257229538
20
6.331189881604791
30
0.
11
8.544284257229538
21
6.331189881604791
31
0.
0
LINE
8
0
10
8.544284257229538
20
6.168810118395209
30
0.
11
8.544284257229538
21
6.168810118395209
31
0.
0
LINE
8
0
10
8.57682962861477
20
6.112439881604791
30
0.
11
8.57682962861477
21
6.112439881604791
31
0.
0
LINE
8
0
10
8.71745462861477
20
6.03125
30
0.
11
8.71745462861477
21
6.03125
31
0.
0
LINE
8
0
10
8.78254537138523
20
6.03125
30
0.
11
8.78254537138523
21
6.03125
31
0.
0
LINE
8
0
10
8.92317037138523
20
6.112439881604791
30
0.
11
8.92317037138523
21
6.112439881604791
31
0.
0
LINE
8
0
10
8.955715742770462
20
6.168810118395209
30
0.
11
8.955715742770462
21
6.168810118395209
31
0.
0
LINE
8
0
10
8.955715742770462
20
6.331189881604791
30
0.
11
8.955715742770462
21
6.331189881604791
31
0.
0
LINE
8
0
10
8.78254537138523
20
7.71875
30
0.
11
8.71745462861477
21
7.71875
31
0.
0
LINE
8
0
10
8.57682962861477
20
7.637560118395209
30
0.
11
8.544284257229538
21
7.581189881604791
31
0.
0
LINE
8
0
10
8.544284257229538
20
7.418810118395209
30
0.
11
8.57682962861477
21
7.362439881604791
31
0.
0
LINE
8
0
10
8.71745462861477
20
7.28125
30
0.
11
8.78254537138523
21
7.28125
31
0.
0
LINE
8
0
10
8.955715742770462
20
7.581189881604791
30
0.
11
8.92317037138523
21
7.637560118395209
31
0.
0
LINE
8
0
10
8.92317037138523
20
7.362439881604791
30
0.
11
8.955715742770462
21
7.418810118395209
31
0.
0
LINE
8
0
10
8.92317037138523
20
7.637560118395209
30
0.
11
8.92317037138523
21
7.637560118395209
31
0.
0
LINE
8
0
10
8.78254537138523
20
7.71875
30
0.
11
8.78254537138523
21
7.71875
31
0.
0
LINE
8
0
10
8.71745462861477
20
7.71875
30
0.
11
8.71745462861477
21
7.71875
31
0.
0
LINE
8
0
10
8.57682962861477
20
7.637560118395209
30
0.
11
8.57682962861477
21
7.637560118395209
31
0.
0
LINE
8
0
10
8.544284257229538
20
7.581189881604791
30
0.
11
8.544284257229538
21
7.581189881604791
31
0.
0
LINE
8
0
10
8.544284257229538
20
7.418810118395209
30
0.
11
8.544284257229538
21
7.418810118395209
31
0.
0
LINE
8
0
10
8.57682962861477
20
7.362439881604791
30
0.
11
8.57682962861477
21
7.362439881604791
31
0.
0
LINE
8
0
10
8.71745462861477
20
7.28125
30
0.
11
8.71745462861477
21
7.28125
31
0.
0
LINE
8
0
10
8.78254537138523
20
7.28125
30
0.
11
8.78254537138523
21
7.28125
31
0.
0
LINE
8
0
10
8.92317037138523
20
7.362439881604791
30
0.
11
8.92317037138523
21
7.362439881604791
31
0.
0
LINE
8
0
10
8.955715742770462
20
7.418810118395209
30
0.
11
8.955715742770462
21
7.418810118395209
31
0.
0
LINE
8
0
10
8.955715742770462
20
7.581189881604791
30
0.
11
8.955715742770462
21
7.581189881604791
31
0.
0
LINE
8
0
10
8.78254537138523
20
8.96875
30
0.
11
8.71745462861477
21
8.96875
31
0.
0
LINE
8
0
10
8.57682962861477
20
8.887560118395209
30
0.
11
8.544284257229538
21
8.831189881604791
31
0.
0
LINE
8
0
10
8.544284257229538
20
8.668810118395209
30
0.
11
8.57682962861477
21
8.612439881604791
31
0.
0
LINE
8
0
10
8.71745462861477
20
8.53125
30
0.
11
8.78254537138523
21
8.53125
31
0.
0
LINE
8
0
10
8.955715742770462
20
8.831189881604791
30
0.
11
8.92317037138523
21
8.887560118395209
31
0.
0
LINE
8
0
10
8.92317037138523
20
8.612439881604791
30
0.
11
8.955715742770462
21
8.668810118395209
31
0.
0
LINE
8
0
10
8.92317037138523
20
8.887560118395209
30
0.
11
8.92317037138523
21
8.887560118395209
31
0.
0
LINE
8
0
10
8.78254537138523
20
8.96875
30
0.
11
8.78254537138523
21
8.96875
31
0.
0
LINE
8
0
10
8.71745462861477
20
8.96875
30
0.
11
8.71745462861477
21
8.96875
31
0.
0
LINE
8
0
10
8.57682962861477
20
8.887560118395209
30
0.
11
8.57682962861477
21
8.887560118395209
31
0.
0
LINE
8
0
10
8.544284257229538
20
8.831189881604791
30
0.
11
8.544284257229538
21
8.831189881604791
31
0.
0
LINE
8
0
10
8.544284257229538
20
8.668810118395209
30
0.
11
8.544284257229538
21
8.668810118395209
31
0.
0
LINE
8
0
10
8.57682962861477
20
8.612439881604791
30
0.
11
8.57682962861477
21
8.612439881604791
31
0.
0
LINE
8
0
10
8.71745462861477
20
8.53125
30
0.
11
8.71745462861477
21
8.53125
31
0.
0
LINE
8
0
10
8.78254537138523
20
8.53125
30
0.
11
8.78254537138523
21
8.53125
31
0.
0
LINE
8
0
10
8.92317037138523
20
8.612439881604791
30
0.
11
8.92317037138523
21
8.612439881604791
31
0.
0
LINE
8
0
10
8.955715742770462
20
8.668810118395209
30
0.
11
8.955715742770462
21
8.668810118395209
31
0.
0
LINE
8
0
10
8.955715742770462
20
8.831189881604791
30
0.
11
8.955715742770462
21
8.831189881604791
31
0.
0
LINE
8
0
10
10.03254537138523
20
1.46875
30
0.
11
9.96745462861477
21
1.46875
31
0.
0
LINE
8
0
10
9.82682962861477
20
1.3875601183952089
30
0.
11
9.794284257229538
21
1.3311898816047911
31
0.
0
LINE
8
0
10
9.794284257229538
20
1.1688101183952089
30
0.
11
9.82682962861477
21
1.1124398816047911
31
0.
0
LINE
8
0
10
9.96745462861477
20
1.03125
30
0.
11
10.03254537138523
21
1.03125
31
0.
0
LINE
8
0
10
10.205715742770462
20
1.3311898816047911
30
0.
11
10.17317037138523
21
1.3875601183952089
31
0.
0
LINE
8
0
10
10.17317037138523
20
1.1124398816047911
30
0.
11
10.205715742770462
21
1.1688101183952089
31
0.
0
LINE
8
0
10
10.17317037138523
20
1.3875601183952089
30
0.
11
10.17317037138523
21
1.3875601183952089
31
0.
0
LINE
8
0
10
10.03254537138523
20
1.46875
30
0.
11
10.03254537138523
21
1.46875
31
0.
0
LINE
8
0
10
9.96745462861477
20
1.46875
30
0.
11
9.96745462861477
21
1.46875
31
0.
0
LINE
8
0
10
9.82682962861477
20
1.3875601183952089
30
0.
11
9.82682962861477
21
1.3875601183952089
31
0.
0
LINE
8
0
10
9.794284257229538
20
1.3311898816047911
30
0.
11
9.794284257229538
21
1.3311898816047911
31
0.
0
LINE
8
0
10
9.794284257229538
20
1.1688101183952089
30
0.
11
9.794284257229538
21
1.1688101183952089
31
0.
0
LINE
8
0
10
9.82682962861477
20
1.1124398816047911
30
0.
11
9.82682962861477
21
1.1124398816047911
31
0.
0
LINE
8
0
10
9.96745462861477
20
1.03125
30
0.
11
9.96745462861477
21
1.03125
31
0.
0
LINE
8
0
10
10.03254537138523
20
1.03125
30
0.
11
10.03254537138523
21
1.03125
31
0.
0
LINE
8
0
10
10.17317037138523
20
1.1124398816047911
30
0.
11
10.17317037138523
21
1.1124398816047911
31
0.
0
LINE
8
0
10
10.205715742770462
20
1.1688101183952089
30
0.
11
10.205715742770462
21
1.1688101183952089
31
0.
0
LINE
8
0
10
10.205715742770462
20
1.3311898816047911
30
0.
11
10.205715742770462
21
1.3311898816047911
31
0.
0
LINE
8
0
10
10.03254537138523
20
2.71875
30
0.
11
9.96745462861477
21
2.71875
31
0.
0
LINE
8
0
10
9.82682962861477
20
2.637560118395209
30
0.
11
9.794284257229538
21
2.581189881604791
31
0.
0
LINE
8
0
10
9.794284257229538
20
2.418810118395209
30
0.
11
9.82682962861477
21
2.362439881604791
31
0.
0
LINE
8
0
10
9.96745462861477
20
2.28125
30
0.
11
10.03254537138523
21
2.28125
31
0.
0
LINE
8
0
10
10.205715742770462
20
2.581189881604791
30
0.
11
10.17317037138523
21
2.637560118395209
31
0.
0
LINE
8
0
10
10.17317037138523
20
2.362439881604791
30
0.
11
10.205715742770462
21
2.418810118395209
31
0.
0
LINE
8
0
10
10.17317037138523
20
2.637560118395209
30
0.
11
10.17317037138523
21
2.637560118395209
31
0.
0
LINE
8
0
10
10.03254537138523
20
2.71875
30
0.
11
10.03254537138523
21
2.71875
31
0.
0
LINE
8
0
10
9.96745462861477
20
2.71875
30
0.
11
9.96745462861477
21
2.71875
31
0.
0
LINE
8
0
10
9.82682962861477
20
2.637560118395209
30
0.
11
9.82682962861477
21
2.637560118395209
31
0.
0
LINE
8
0
10
9.794284257229538
20
2.581189881604791
30
0.
11
9.794284257229538
21
2.581189881604791
31
0.
0
LINE
8
0
10
9.794284257229538
20
2.418810118395209
30
0.
11
9.794284257229538
21
2.418810118395209
31
0.
0
LINE
8
0
10
9.82682962861477
20
2.362439881604791
30
0.
11
9.82682962861477
21
2.362439881604791
31
0.
0
LINE
8
0
10
9.96745462861477
20
2.28125
30
0.
11
9.96745462861477
21
2.28125
31
0.
0
LINE
8
0
10
10.03254537138523
20
2.28125
30
0.
11
10.03254537138523
21
2.28125
31
0.
0
LINE
8
0
10
10.17317037138523
20
2.362439881604791
30
0.
11
10.17317037138523
21
2.362439881604791
31
0.
0
LINE
8
0
10
10.205715742770462
20
2.418810118395209
30
0.
11
10.205715742770462
21
2.418810118395209
31
0.
0
LINE
8
0
10
10.205715742770462
20
2.581189881604791
30
0.
11
10.205715742770462
21
2.581189881604791
31
0.
0
LINE
8
0
10
10.03254537138523
20
3.96875
30
0.
11
9.96745462861477
21
3.96875
31
0.
0
LINE
8
0
10
9.82682962861477
20
3.887560118395209
30
0.
11
9.794284257229538
21
3.831189881604791
31
0.
0
LINE
8
0
10
9.794284257229538
20
3.668810118395209
30
0.
11
9.82682962861477
21
3.612439881604791
31
0.
0
LINE
8
0
10
9.96745462861477
20
3.53125
30
0.
11
10.03254537138523
21
3.53125
31
0.
0
LINE
8
0
10
10.205715742770462
20
3.831189881604791
30
0.
11
10.17317037138523
21
3.887560118395209
31
0.
0
LINE
8
0
10
10.17317037138523
20
3.612439881604791
30
0.
11
10.205715742770462
21
3.668810118395209
31
0.
0
LINE
8
0
10
10.17317037138523
20
3.887560118395209
30
0.
11
10.17317037138523
21
3.887560118395209
31
0.
0
LINE
8
0
10
10.03254537138523
20
3.96875
30
0.
11
10.03254537138523
21
3.96875
31
0.
0
LINE
8
0
10
9.96745462861477
20
3.96875
30
0.
11
9.96745462861477
21
3.96875
31
0.
0
LINE
8
0
10
9.82682962861477
20
3.887560118395209
30
0.
11
9.82682962861477
21
3.887560118395209
31
0.
0
LINE
8
0
10
9.794284257229538
20
3.831189881604791
30
0.
11
9.794284257229538
21
3.831189881604791
31
0.
0
LINE
8
0
10
9.794284257229538
20
3.668810118395209
30
0.
11
9.794284257229538
21
3.668810118395209
31
0.
0
LINE
8
0
10
9.82682962861477
20
3.612439881604791
30
0.
11
9.82682962861477
21
3.612439881604791
31
0.
0
LINE
8
0
10
9.96745462861477
20
3.53125
30
0.
11
9.96745462861477
21
3.53125
31
0.
0
LINE
8
0
10
10.03254537138523
20
3.53125
30
0.
11
10.03254537138523
21
3.53125
31
0.
0
LINE
8
0
10
10.17317037138523
20
3.612439881604791
30
0.
11
10.17317037138523
21
3.612439881604791
31
0.
0
LINE
8
0
10
10.205715742770462
20
3.668810118395209
30
0.
11
10.205715742770462
21
3.668810118395209
31
0.
0
LINE
8
0
10
10.205715742770462
20
3.831189881604791
30
0.
11
10.205715742770462
21
3.831189881604791
31
0.
0
LINE
8
0
10
10.03254537138523
20
5.21875
30
0.
11
9.96745462861477
21
5.21875
31
0.
0
LINE
8
0
10
9.82682962861477
20
5.137560118395209
30
0.
11
9.794284257229538
21
5.081189881604791
31
0.
0
LINE
8
0
10
9.794284257229538
20
4.918810118395209
30
0.
11
9.82682962861477
21
4.862439881604791
31
0.
0
LINE
8
0
10
9.96745462861477
20
4.78125
30
0.
11
10.03254537138523
21
4.78125
31
0.
0
LINE
8
0
10
10.205715742770462
20
5.081189881604791
30
0.
11
10.17317037138523
21
5.137560118395209
31
0.
0
LINE
8
0
10
10.17317037138523
20
4.862439881604791
30
0.
11
10.205715742770462
21
4.918810118395209
31
0.
0
LINE
8
0
10
10.17317037138523
20
5.137560118395209
30
0.
11
10.17317037138523
21
5.137560118395209
31
0.
0
LINE
8
0
10
10.03254537138523
20
5.21875
30
0.
11
10.03254537138523
21
5.21875
31
0.
0
LINE
8
0
10
9.96745462861477
20
5.21875
30
0.
11
9.96745462861477
21
5.21875
31
0.
0
LINE
8
0
10
9.82682962861477
20
5.137560118395209
30
0.
11
9.82682962861477
21
5.137560118395209
31
0.
0
LINE
8
0
10
9.794284257229538
20
5.081189881604791
30
0.
11
9.794284257229538
21
5.081189881604791
31
0.
0
LINE
8
0
10
9.794284257229538
20
4.918810118395209
30
0.
11
9.794284257229538
21
4.918810118395209
31
0.
0
LINE
8
0
10
9.82682962861477
20
4.862439881604791
30
0.
11
9.82682962861477
21
4.862439881604791
31
0.
0
LINE
8
0
10
9.96745462861477
20
4.78125
30
0.
11
9.96745462861477
21
4.78125
31
0.
0
LINE
8
0
10
10.03254537138523
20
4.78125
30
0.
11
10.03254537138523
21
4.78125
31
0.
0
LINE
8
0
10
10.17317037138523
20
4.862439881604791
30
0.
11
10.17317037138523
21
4.862439881604791
31
0.
0
LINE
8
0
10
10.205715742770462
20
4.918810118395209
30
0.
11
10.205715742770462
21
4.918810118395209
31
0.
0
LINE
8
0
10
10.205715742770462
20
5.081189881604791
30
0.
11
10.205715742770462
21
5.081189881604791
31
0.
0
LINE
8
0
10
10.03254537138523
20
6.46875
30
0.
11
9.96745462861477
21
6.46875
31
0.
0
LINE
8
0
10
9.82682962861477
20
6.387560118395209
30
0.
11
9.794284257229538
21
6.331189881604791
31
0.
0
LINE
8
0
10
9.794284257229538
20
6.168810118395209
30
0.
11
9.82682962861477
21
6.112439881604791
31
0.
0
LINE
8
0
10
9.96745462861477
20
6.03125
30
0.
11
10.03254537138523
21
6.03125
31
0.
0
LINE
8
0
10
10.205715742770462
20
6.331189881604791
30
0.
11
10.17317037138523
21
6.387560118395209
31
0.
0
LINE
8
0
10
10.17317037138523
20
6.112439881604791
30
0.
11
10.205715742770462
21
6.168810118395209
31
0.
0
LINE
8
0
10
10.17317037138523
20
6.387560118395209
30
0.
11
10.17317037138523
21
6.387560118395209
31
0.
0
LINE
8
0
10
10.03254537138523
20
6.46875
30
0.
11
10.03254537138523
21
6.46875
31
0.
0
LINE
8
0
10
9.96745462861477
20
6.46875
30
0.
11
9.96745462861477
21
6.46875
31
0.
0
LINE
8
0
10
9.82682962861477
20
6.387560118395209
30
0.
11
9.82682962861477
21
6.387560118395209
31
0.
0
LINE
8
0
10
9.794284257229538
20
6.331189881604791
30
0.
11
9.794284257229538
21
6.331189881604791
31
0.
0
LINE
8
0
10
9.794284257229538
20
6.168810118395209
30
0.
11
9.794284257229538
21
6.168810118395209
31
0.
0
LINE
8
0
10
9.82682962861477
20
6.112439881604791
30
0.
11
9.82682962861477
21
6.112439881604791
31
0.
0
LINE
8
0
10
9.96745462861477
20
6.03125
30
0.
11
9.96745462861477
21
6.03125
31
0.
0
LINE
8
0
10
10.03254537138523
20
6.03125
30
0.
11
10.03254537138523
21
6.03125
31
0.
0
LINE
8
0
10
10.17317037138523
20
6.112439881604791
30
0.
11
10.17317037138523
21
6.112439881604791
31
0.
0
LINE
8
0
10
10.205715742770462
20
6.168810118395209
30
0.
11
10.205715742770462
21
6.168810118395209
31
0.
0
LINE
8
0
10
10.205715742770462
20
6.331189881604791
30
0.
11
10.205715742770462
21
6.331189881604791
31
0.
0
LINE
8
0
10
10.03254537138523
20
7.71875
30
0.
11
9.96745462861477
21
7.71875
31
0.
0
LINE
8
0
10
9.82682962861477
20
7.637560118395209
30
0.
11
9.794284257229538
21
7.581189881604791
31
0.
0
LINE
8
0
10
9.794284257229538
20
7.418810118395209
30
0.
11
9.82682962861477
21
7.362439881604791
31
0.
0
LINE
8
0
10
9.96745462861477
20
7.28125
30
0.
11
10.03254537138523
21
7.28125
31
0.
0
LINE
8
0
10
10.205715742770462
20
7.581189881604791
30
0.
11
10.17317037138523
21
7.637560118395209
31
0.
0
LINE
8
0
10
10.17317037138523
20
7.362439881604791
30
0.
11
10.205715742770462
21
7.418810118395209
31
0.
0
LINE
8
0
10
10.17317037138523
20
7.637560118395209
30
0.
11
10.17317037138523
21
7.637560118395209
31
0.
0
LINE
8
0
10
10.03254537138523
20
7.71875
30
0.
11
10.03254537138523
21
7.71875
31
0.
0
LINE
8
0
10
9.96745462861477
20
7.71875
30
0.
11
9.96745462861477
21
7.71875
31
0.
0
LINE
8
0
10
9.82682962861477
20
7.637560118395209
30
0.
11
9.82682962861477
21
7.637560118395209
31
0.
0
LINE
8
0
10
9.794284257229538
20
7.581189881604791
30
0.
11
9.794284257229538
21
7.581189881604791
31
0.
0
LINE
8
0
10
9.794284257229538
20
7.418810118395209
30
0.
11
9.794284257229538
21
7.418810118395209
31
0.
0
LINE
8
0
10
9.82682962861477
20
7.362439881604791
30
0.
11
9.82682962861477
21
7.362439881604791
31
0.
0
LINE
8
0
10
9.96745462861477
20
7.28125
30
0.
11
9.96745462861477
21
7.28125
31
0.
0
LINE
8
0
10
10.03254537138523
20
7.28125
30
0.
11
10.03254537138523
21
7.28125
31
0.
0
LINE
8
0
10
10.17317037138523
20
7.362439881604791
30
0.
11
10.17317037138523
21
7.362439881604791
31
0.
0
LINE
8
0
10
10.205715742770462
20
7.418810118395209
30
0.
11
10.205715742770462
21
7.418810118395209
31
0.
0
LINE
8
0
10
10.205715742770462
20
7.581189881604791
30
0.
11
10.205715742770462
21
7.581189881604791
31
0.
0
LINE
8
0
10
10.03254537138523
20
8.96875
30
0.
11
9.96745462861477
21
8.96875
31
0.
0
LINE
8
0
10
9.82682962861477
20
8.887560118395209
30
0.
11
9.794284257229538
21
8.831189881604791
31
0.
0
LINE
8
0
10
9.794284257229538
20
8.668810118395209
30
0.
11
9.82682962861477
21
8.612439881604791
31
0.
0
LINE
8
0
10
9.96745462861477
20
8.53125
30
0.
11
10.03254537138523
21
8.53125
31
0.
0
LINE
8
0
10
10.205715742770462
20
8.831189881604791
30
0.
11
10.17317037138523
21
8.887560118395209
31
0.
0
LINE
8
0
10
10.17317037138523
20
8.612439881604791
30
0.
11
10.205715742770462
21
8.668810118395209
31
0.
0
LINE
8
0
10
10.17317037138523
20
8.887560118395209
30
0.
11
10.17317037138523
21
8.887560118395209
31
0.
0
LINE
8
0
10
10.03254537138523
20
8.96875
30
0.
11
10.03254537138523
21
8.96875
31
0.
0
LINE
8
0
10
9.96745462861477
20
8.96875
30
0.
11
9.96745462861477
21
8.96875
31
0.
0
LINE
8
0
10
9.82682962861477
20
8.887560118395209
30
0.
11
9.82682962861477
21
8.887560118395209
31
0.
0
LINE
8
0
10
9.794284257229538
20
8.831189881604791
30
0.
11
9.794284257229538
21
8.831189881604791
31
0.
0
LINE
8
0
10
9.794284257229538
20
8.668810118395209
30
0.
11
9.794284257229538
21
8.668810118395209
31
0.
0
LINE
8
0
10
9.82682962861477
20
8.612439881604791
30
0.
11
9.82682962861477
21
8.612439881604791
31
0.
0
LINE
8
0
10
9.96745462861477
20
8.53125
30
0.
11
9.96745462861477
21
8.53125
31
0.
0
LINE
8
0
10
10.03254537138523
20
8.53125
30
0.
11
10.03254537138523
21
8.53125
31
0.
0
LINE
8
0
10
10.17317037138523
20
8.612439881604791
30
0.
11
10.17317037138523
21
8.612439881604791
31
0.
0
LINE
8
0
10
10.205715742770462
20
8.668810118395209
30
0.
11
10.205715742770462
21
8.668810118395209
31
0.
0
LINE
8
0
10
10.205715742770462
20
8.831189881604791
30
0.
11
10.205715742770462
21
8.831189881604791
31
0.
0
LINE
8
0
10
11.28254537138523
20
1.46875
30
0.
11
11.21745462861477
21
1.46875
31
0.
0
LINE
8
0
10
11.07682962861477
20
1.3875601183952089
30
0.
11
11.044284257229538
21
1.3311898816047911
31
0.
0
LINE
8
0
10
11.044284257229538
20
1.1688101183952089
30
0.
11
11.07682962861477
21
1.1124398816047911
31
0.
0
LINE
8
0
10
11.21745462861477
20
1.03125
30
0.
11
11.28254537138523
21
1.03125
31
0.
0
LINE
8
0
10
11.455715742770462
20
1.3311898816047911
30
0.
11
11.42317037138523
21
1.3875601183952089
31
0.
0
LINE
8
0
10
11.42317037138523
20
1.1124398816047911
30
0.
11
11.455715742770462
21
1.1688101183952089
31
0.
0
LINE
8
0
10
11.42317037138523
20
1.3875601183952089
30
0.
11
11.42317037138523
21
1.3875601183952089
31
0.
0
LINE
8
0
10
11.28254537138523
20
1.46875
30
0.
11
11.28254537138523
21
1.46875
31
0.
0
LINE
8
0
10
11.21745462861477
20
1.46875
30
0.
11
11.21745462861477
21
1.46875
31
0.
0
LINE
8
0
10
11.07682962861477
20
1.3875601183952089
30
0.
11
11.07682962861477
21
1.3875601183952089
31
0.
0
LINE
8
0
10
11.044284257229538
20
1.3311898816047911
30
0.
11
11.044284257229538
21
1.3311898816047911
31
0.
0
LINE
8
0
10
11.044284257229538
20
1.1688101183952089
30
0.
11
11.044284257229538
21
1.1688101183952089
31
0.
0
LINE
8
0
10
11.07682962861477
20
1.1124398816047911
30
0.
11
11.07682962861477
21
1.1124398816047911
31
0.
0
LINE
8
0
10
11.21745462861477
20
1.03125
30
0.
11
11.21745462861477
21
1.03125
31
0.
0
LINE
8
0
10
11.28254537138523
20
1.03125
30
0.
11
11.28254537138523
21
1.03125
31
0.
0
LINE
8
0
10
11.42317037138523
20
1.1124398816047911
30
0.
11
11.42317037138523
21
1.1124398816047911
31
0.
0
LINE
8
0
10
11.455715742770462
20
1.1688101183952089
30
0.
11
11.455715742770462
21
1.1688101183952089
31
0.
0
LINE
8
0
10
11.455715742770462
20
1.3311898816047911
30
0.
11
11.455715742770462
21
1.3311898816047911
31
0.
0
LINE
8
0
10
11.28254537138523
20
2.71875
30
0.
11
11.21745462861477
21
2.71875
31
0.
0
LINE
8
0
10
11.07682962861477
20
2.637560118395209
30
0.
11
11.044284257229538
21
2.581189881604791
31
0.
0
LINE
8
0
10
11.044284257229538
20
2.418810118395209
30
0.
11
11.07682962861477
21
2.362439881604791
31
0.
0
LINE
8
0
10
11.21745462861477
20
2.28125
30
0.
11
11.28254537138523
21
2.28125
31
0.
0
LINE
8
0
10
11.455715742770462
20
2.581189881604791
30
0.
11
11.42317037138523
21
2.637560118395209
31
0.
0
LINE
8
0
10
11.42317037138523
20
2.362439881604791
30
0.
11
11.455715742770462
21
2.418810118395209
31
0.
0
LINE
8
0
10
11.42317037138523
20
2.637560118395209
30
0.
11
11.42317037138523
21
2.637560118395209
31
0.
0
LINE
8
0
10
11.28254537138523
20
2.71875
30
0.
11
11.28254537138523
21
2.71875
31
0.
0
LINE
8
0
10
11.21745462861477
20
2.71875
30
0.
11
11.21745462861477
21
2.71875
31
0.
0
LINE
8
0
10
11.07682962861477
20
2.637560118395209
30
0.
11
11.07682962861477
21
2.637560118395209
31
0.
0
LINE
8
0
10
11.044284257229538
20
2.581189881604791
30
0.
11
11.044284257229538
21
2.581189881604791
31
0.
0
LINE
8
0
10
11.044284257229538
20
2.418810118395209
30
0.
11
11.044284257229538
21
2.418810118395209
31
0.
0
LINE
8
0
10
11.07682962861477
20
2.362439881604791
30
0.
11
11.07682962861477
21
2.362439881604791
31
0.
0
LINE
8
0
10
11.21745462861477
20
2.28125
30
0.
11
11.21745462861477
21
2.28125
31
0.
0
LINE
8
0
10
11.28254537138523
20
2.28125
30
0.
11
11.28254537138523
21
2.28125
31
0.
0
LINE
8
0
10
11.42317037138523
20
2.362439881604791
30
0.
11
11.42317037138523
21
2.362439881604791
31
0.
0
LINE
8
0
10
11.455715742770462
20
2.418810118395209
30
0.
11
11.455715742770462
21
2.418810118395209
31
0.
0
LINE
8
0
10
11.455715742770462
20
2.581189881604791
30
0.
11
11.455715742770462
21
2.581189881604791
31
0.
0
LINE
8
0
10
11.28254537138523
20
3.96875
30
0.
11
11.21745462861477
21
3.96875
31
0.
0
LINE
8
0
10
11.07682962861477
20
3.887560118395209
30
0.
11
11.044284257229538
21
3.831189881604791
31
0.
0
LINE
8
0
10
11.044284257229538
20
3.668810118395209
30
0.
11
11.07682962861477
21
3.612439881604791
31
0.
0
LINE
8
0
10
11.21745462861477
20
3.53125
30
0.
11
11.28254537138523
21
3.53125
31
0.
0
LINE
8
0
10
11.455715742770462
20
3.831189881604791
30
0.
11
11.42317037138523
21
3.887560118395209
31
0.
0
LINE
8
0
10
11.42317037138523
20
3.612439881604791
30
0.
11
11.455715742770462
21
3.668810118395209
31
0.
0
LINE
8
0
10
11.42317037138523
20
3.887560118395209
30
0.
11
11.42317037138523
21
3.887560118395209
31
0.
0
LINE
8
0
10
11.28254537138523
20
3.96875
30
0.
11
11.28254537138523
21
3.96875
31
0.
0
LINE
8
0
10
11.21745462861477
20
3.96875
30
0.
11
11.21745462861477
21
3.96875
31
0.
0
LINE
8
0
10
11.07682962861477
20
3.887560118395209
30
0.
11
11.07682962861477
21
3.887560118395209
31
0.
0
LINE
8
0
10
11.044284257229538
20
3.831189881604791
30
0.
11
11.044284257229538
21
3.831189881604791
31
0.
0
LINE
8
0
10
11.044284257229538
20
3.668810118395209
30
0.
11
11.044284257229538
21
3.668810118395209
31
0.
0
LINE
8
0
10
11.07682962861477
20
3.612439881604791
30
0.
11
11.07682962861477
21
3.612439881604791
31
0.
0
LINE
8
0
10
11.21745462861477
20
3.53125
30
0.
11
11.21745462861477
21
3.53125
31
0.
0
LINE
8
0
10
11.28254537138523
20
3.53125
30
0.
11
11.28254537138523
21
3.53125
31
0.
0
LINE
8
0
10
11.42317037138523
20
3.612439881604791
30
0.
11
11.42317037138523
21
3.612439881604791
31
0.
0
LINE
8
0
10
11.455715742770462
20
3.668810118395209
30
0.
11
11.455715742770462
21
3.668810118395209
31
0.
0
LINE
8
0
10
11.455715742770462
20
3.831189881604791
30
0.
11
11.455715742770462
21
3.831189881604791
31
0.
0
LINE
8
0
10
11.28254537138523
20
5.21875
30
0.
11
11.21745462861477
21
5.21875
31
0.
0
LINE
8
0
10
11.07682962861477
20
5.137560118395209
30
0.
11
11.044284257229538
21
5.081189881604791
31
0.
0
LINE
8
0
10
11.044284257229538
20
4.918810118395209
30
0.
11
11.07682962861477
21
4.862439881604791
31
0.
0
LINE
8
0
10
11.21745462861477
20
4.78125
30
0.
11
11.28254537138523
21
4.78125
31
0.
0
LINE
8
0
10
11.455715742770462
20
5.081189881604791
30
0.
11
11.42317037138523
21
5.137560118395209
31
0.
0
LINE
8
0
10
11.42317037138523
20
4.862439881604791
30
0.
11
11.455715742770462
21
4.918810118395209
31
0.
0
LINE
8
0
10
11.42317037138523
20
5.137560118395209
30
0.
11
11.42317037138523
21
5.137560118395209
31
0.
0
LINE
8
0
10
11.28254537138523
20
5.21875
30
0.
11
11.28254537138523
21
5.21875
31
0.
0
LINE
8
0
10
11.21745462861477
20
5.21875
30
0.
11
11.21745462861477
21
5.21875
31
0.
0
LINE
8
0
10
11.07682962861477
20
5.137560118395209
30
0.
11
11.07682962861477
21
5.137560118395209
31
0.
0
LINE
8
0
10
11.044284257229538
20
5.081189881604791
30
0.
11
11.044284257229538
21
5.081189881604791
31
0.
0
LINE
8
0
10
11.044284257229538
20
4.918810118395209
30
0.
11
11.044284257229538
21
4.918810118395209
31
0.
0
LINE
8
0
10
11.07682962861477
20
4.862439881604791
30
0.
11
11.07682962861477
21
4.862439881604791
31
0.
0
LINE
8
0
10
11.21745462861477
20
4.78125
30
0.
11
11.21745462861477
21
4.78125
31
0.
0
LINE
8
0
10
11.28254537138523
20
4.78125
30
0.
11
11.28254537138523
21
4.78125
31
0.
0
LINE
8
0
10
11.42317037138523
20
4.862439881604791
30
0.
11
11.42317037138523
21
4.862439881604791
31
0.
0
LINE
8
0
10
11.455715742770462
20
4.918810118395209
30
0.
11
11.455715742770462
21
4.918810118395209
31
0.
0
LINE
8
0
10
11.455715742770462
20
5.081189881604791
30
0.
11
11.455715742770462
21
5.081189881604791
31
0.
0
LINE
8
0
10
11.28254537138523
20
6.46875
30
0.
11
11.21745462861477
21
6.46875
31
0.
0
LINE
8
0
10
11.07682962861477
20
6.387560118395209
30
0.
11
11.044284257229538
21
6.331189881604791
31
0.
0
LINE
8
0
10
11.044284257229538
20
6.168810118395209
30
0.
11
11.07682962861477
21
6.112439881604791
31
0.
0
LINE
8
0
10
11.21745462861477
20
6.03125
30
0.
11
11.28254537138523
21
6.03125
31
0.
0
LINE
8
0
10
11.455715742770462
20
6.331189881604791
30
0.
11
11.42317037138523
21
6.387560118395209
31
0.
0
LINE
8
0
10
11.42317037138523
20
6.112439881604791
30
0.
11
11.455715742770462
21
6.168810118395209
31
0.
0
LINE
8
0
10
11.42317037138523
20
6.387560118395209
30
0.
11
11.42317037138523
21
6.387560118395209
31
0.
0
LINE
8
0
10
11.28254537138523
20
6.46875
30
0.
11
11.28254537138523
21
6.46875
31
0.
0
LINE
8
0
10
11.21745462861477
20
6.46875
30
0.
11
11.21745462861477
21
6.46875
31
0.
0
LINE
8
0
10
11.07682962861477
20
6.387560118395209
30
0.
11
11.07682962861477
21
6.387560118395209
31
0.
0
LINE
8
0
10
11.044284257229538
20
6.331189881604791
30
0.
11
11.044284257229538
21
6.331189881604791
31
0.
0
LINE
8
0
10
11.044284257229538
20
6.168810118395209
30
0.
11
11.044284257229538
21
6.168810118395209
31
0.
0
LINE
8
0
10
11.07682962861477
20
6.112439881604791
30
0.
11
11.07682962861477
21
6.112439881604791
31
0.
0
LINE
8
0
10
11.21745462861477
20
6.03125
30
0.
11
11.21745462861477
21
6.03125
31
0.
0
LINE
8
0
10
11.28254537138523
20
6.03125
30
0.
11
11.28254537138523
21
6.03125
31
0.
0
LINE
8
0
10
11.42317037138523
20
6.112439881604791
30
0.
11
11.42317037138523
21
6.112439881604791
31
0.
0
LINE
8
0
10
11.455715742770462
20
6.168810118395209
30
0.
11
11.455715742770462
21
6.168810118395209
31
0.
0
LINE
8
0
10
11.455715742770462
20
6.331189881604791
30
0.
11
11.455715742770462
21
6.331189881604791
31
0.
0
LINE
8
0
10
11.28254537138523
20
7.71875
30
0.
11
11.21745462861477
21
7.71875
31
0.
0
LINE
8
0
10
11.07682962861477
20
7.637560118395209
30
0.
11
11.044284257229538
21
7.581189881604791
31
0.
0
LINE
8
0
10
11.044284257229538
20
7.418810118395209
30
0.
11
11.07682962861477
21
7.362439881604791
31
0.
0
LINE
8
0
10
11.21745462861477
20
7.28125
30
0.
11
11.28254537138523
21
7.28125
31
0.
0
LINE
8
0
10
11.455715742770462
20
7.581189881604791
30
0.
11
11.42317037138523
21
7.637560118395209
31
0.
0
LINE
8
0
10
11.42317037138523
20
7.362439881604791
30
0.
11
11.455715742770462
21
7.418810118395209
31
0.
0
LINE
8
0
10
11.42317037138523
20
7.637560118395209
30
0.
11
11.42317037138523
21
7.637560118395209
31
0.
0
LINE
8
0
10
11.28254537138523
20
7.71875
30
0.
11
11.28254537138523
21
7.71875
31
0.
0
LINE
8
0
10
11.21745462861477
20
7.71875
30
0.
11
11.21745462861477
21
7.71875
31
0.
0
LINE
8
0
10
11.07682962861477
20
7.637560118395209
30
0.
11
11.07682962861477
21
7.637560118395209
31
0.
0
LINE
8
0
10
11.044284257229538
20
7.581189881604791
30
0.
11
11.044284257229538
21
7.581189881604791
31
0.
0
LINE
8
0
10
11.044284257229538
20
7.418810118395209
30
0.
11
11.044284257229538
21
7.418810118395209
31
0.
0
LINE
8
0
10
11.07682962861477
20
7.362439881604791
30
0.
11
11.07682962861477
21
7.362439881604791
31
0.
0
LINE
8
0
10
11.21745462861477
20
7.28125
30
0.
11
11.21745462861477
21
7.28125
31
0.
0
LINE
8
0
10
11.28254537138523
20
7.28125
30
0.
11
11.28254537138523
21
7.28125
31
0.
0
LINE
8
0
10
11.42317037138523
20
7.362439881604791
30
0.
11
11.42317037138523
21
7.362439881604791
31
0.
0
LINE
8
0
10
11.455715742770462
20
7.418810118395209
30
0.
11
11.455715742770462
21
7.418810118395209
31
0.
0
LINE
8
0
10
11.455715742770462
20
7.581189881604791
30
0.
11
11.455715742770462
21
7.581189881604791
31
0.
0
LINE
8
0
10
11.28254537138523
20
8.96875
30
0.
11
11.21745462861477
21
8.96875
31
0.
0
LINE
8
0
10
11.07682962861477
20
8.887560118395209
30
0.
11
11.044284257229538
21
8.831189881604791
31
0.
0
LINE
8
0
10
11.044284257229538
20
8.668810118395209
30
0.
11
11.07682962861477
21
8.612439881604791
31
0.
0
LINE
8
0
10
11.21745462861477
20
8.53125
30
0.
11
11.28254537138523
21
8.53125
31
0.
0
LINE
8
0
10
11.455715742770462
20
8.831189881604791
30
0.
11
11.42317037138523
21
8.887560118395209
31
0.
0
LINE
8
0
10
11.42317037138523
20
8.612439881604791
30
0.
11
11.455715742770462
21
8.668810118395209
31
0.
0
LINE
8
0
10
11.42317037138523
20
8.887560118395209
30
0.
11
11.42317037138523
21
8.887560118395209
31
0.
0
LINE
8
0
10
11.28254537138523
20
8.96875
30
0.
11
11.28254537138523
21
8.96875
31
0.
0
LINE
8
0
10
11.21745462861477
20
8.96875
30
0.
11
11.21745462861477
21
8.96875
31
0.
0
LINE
8
0
10
11.07682962861477
20
8.887560118395209
30
0.
11
11.07682962861477
21
8.887560118395209
31
0.
0
LINE
8
0
10
11.044284257229538
20
8.831189881604791
30
0.
11
11.044284257229538
21
8.831189881604791
31
0.
0
LINE
8
0
10
11.044284257229538
20
8.668810118395209
30
0.
11
11.044284257229538
21
8.668810118395209
31
0.
0
LINE
8
0
10
11.07682962861477
20
8.612439881604791
30
0.
11
11.07682962861477
21
8.612439881604791
31
0.
0
LINE
8
0
10
11.21745462861477
20
8.53125
30
0.
11
11.21745462861477
21
8.53125
31
0.
0
LINE
8
0
10
11.28254537138523
20
8.53125
30
0.
11
11.28254537138523
21
8.53125
31
0.
0
LINE
8
0
10
11.42317037138523
20
8.612439881604791
30
0.
11
11.42317037138523
21
8.612439881604791
31
0.
0
LINE
8
0
10
11.455715742770462
20
8.668810118395209
30
0.
11
11.455715742770462
21
8.668810118395209
31
0.
0
LINE
8
0
10
11.455715742770462
20
8.831189881604791
30
0.
11
11.455715742770462
21
8.831189881604791
31
0.
0
LINE
8
0
10
12.53254537138523
20
1.46875
30
0.
11
12.46745462861477
21
1.46875
31
0.
0
LINE
8
0
10
12.32682962861477
20
1.3875601183952089
30
0.
11
12.294284257229538
21
1.3311898816047911
31
0.
0
LINE
8
0
10
12.294284257229538
20
1.1688101183952089
30
0.
11
12.32682962861477
21
1.1124398816047911
31
0.
0
LINE
8
0
10
12.46745462861477
20
1.03125
30
0.
11
12.53254537138523
21
1.03125
31
0.
0
LINE
8
0
10
12.705715742770462
20
1.3311898816047911
30
0.
11
12.67317037138523
21
1.3875601183952089
31
0.
0
LINE
8
0
10
12.67317037138523
20
1.1124398816047911
30
0.
11
12.705715742770462
21
1.1688101183952089
31
0.
0
LINE
8
0
10
12.67317037138523
20
1.3875601183952089
30
0.
11
12.67317037138523
21
1.3875601183952089
31
0.
0
LINE
8
0
10
12.53254537138523
20
1.46875
30
0.
11
12.53254537138523
21
1.46875
31
0.
0
LINE
8
0
10
12.46745462861477
20
1.46875
30
0.
11
12.46745462861477
21
1.46875
31
0.
0
LINE
8
0
10
12.32682962861477
20
1.3875601183952089
30
0.
11
12.32682962861477
21
1.3875601183952089
31
0.
0
LINE
8
0
10
12.294284257229538
20
1.3311898816047911
30
0.
11
12.294284257229538
21
1.3311898816047911
31
0.
0
LINE
8
0
10
12.294284257229538
20
1.1688101183952089
30
0.
11
12.294284257229538
21
1.1688101183952089
31
0.
0
LINE
8
0
10
12.32682962861477
20
1.1124398816047911
30
0.
11
12.32682962861477
21
1.1124398816047911
31
0.
0
LINE
8
0
10
12.46745462861477
20
1.03125
30
0.
11
12.46745462861477
21
1.03125
31
0.
0
LINE
8
0
10
12.53254537138523
20
1.03125
30
0.
11
12.53254537138523
21
1.03125
31
0.
0
LINE
8
0
10
12.67317037138523
20
1.1124398816047911
30
0.
11
12.67317037138523
21
1.1124398816047911
31
0.
0
LINE
8
0
10
12.705715742770462
20
1.1688101183952089
30
0.
11
12.705715742770462
21
1.1688101183952089
31
0.
0
LINE
8
0
10
12.705715742770462
20
1.3311898816047911
30
0.
11
12.705715742770462
21
1.3311898816047911
31
0.
0
LINE
8
0
10
12.53254537138523
20
2.71875
30
0.
11
12.46745462861477
21
2.71875
31
0.
0
LINE
8
0
10
12.32682962861477
20
2.637560118395209
30
0.
11
12.294284257229538
21
2.581189881604791
31
0.
0
LINE
8
0
10
12.294284257229538
20
2.418810118395209
30
0.
11
12.32682962861477
21
2.362439881604791
31
0.
0
LINE
8
0
10
12.46745462861477
20
2.28125
30
0.
11
12.53254537138523
21
2.28125
31
0.
0
LINE
8
0
10
12.705715742770462
20
2.581189881604791
30
0.
11
12.67317037138523
21
2.637560118395209
31
0.
0
LINE
8
0
10
12.67317037138523
20
2.362439881604791
30
0.
11
12.705715742770462
21
2.418810118395209
31
0.
0
LINE
8
0
10
12.67317037138523
20
2.637560118395209
30
0.
11
12.67317037138523
21
2.637560118395209
31
0.
0
LINE
8
0
10
12.53254537138523
20
2.71875
30
0.
11
12.53254537138523
21
2.71875
31
0.
0
LINE
8
0
10
12.46745462861477
20
2.71875
30
0.
11
12.46745462861477
21
2.71875
31
0.
0
LINE
8
0
10
12.32682962861477
20
2.637560118395209
30
0.
11
12.32682962861477
21
2.637560118395209
31
0.
0
LINE
8
0
10
12.294284257229538
20
2.581189881604791
30
0.
11
12.294284257229538
21
2.581189881604791
31
0.
0
LINE
8
0
10
12.294284257229538
20
2.418810118395209
30
0.
11
12.294284257229538
21
2.418810118395209
31
0.
0
LINE
8
0
10
12.32682962861477
20
2.362439881604791
30
0.
11
12.32682962861477
21
2.362439881604791
31
0.
0
LINE
8
0
10
12.46745462861477
20
2.28125
30
0.
11
12.46745462861477
21
2.28125
31
0.
0
LINE
8
0
10
12.53254537138523
20
2.28125
30
0.
11
12.53254537138523
21
2.28125
31
0.
0
LINE
8
0
10
12.67317037138523
20
2.362439881604791
30
0.
11
12.67317037138523
21
2.362439881604791
31
0.
0
LINE
8
0
10
12.705715742770462
20
2.418810118395209
30
0.
11
12.705715742770462
21
2.418810118395209
31
0.
0
LINE
8
0
10
12.705715742770462
20
2.581189881604791
30
0.
11
12.705715742770462
21
2.581189881604791
31
0.
0
LINE
8
0
10
12.53254537138523
20
3.96875
30
0.
11
12.46745462861477
21
3.96875
31
0.
0
LINE
8
0
10
12.32682962861477
20
3.887560118395209
30
0.
11
12.294284257229538
21
3.831189881604791
31
0.
0
LINE
8
0
10
12.294284257229538
20
3.668810118395209
30
0.
11
12.32682962861477
21
3.612439881604791
31
0.
0
LINE
8
0
10
12.46745462861477
20
3.53125
30
0.
11
12.53254537138523
21
3.53125
31
0.
0
LINE
8
0
10
12.705715742770462
20
3.831189881604791
30
0.
11
12.67317037138523
21
3.887560118395209
31
0.
0
LINE
8
0
10
12.67317037138523
20
3.612439881604791
30
0.
11
12.705715742770462
21
3.668810118395209
31
0.
0
LINE
8
0
10
12.67317037138523
20
3.887560118395209
30
0.
11
12.67317037138523
21
3.887560118395209
31
0.
0
LINE
8
0
10
12.53254537138523
20
3.96875
30
0.
11
12.53254537138523
21
3.96875
31
0.
0
LINE
8
0
10
12.46745462861477
20
3.96875
30
0.
11
12.46745462861477
21
3.96875
31
0.
0
LINE
8
0
10
12.32682962861477
20
3.887560118395209
30
0.
11
12.32682962861477
21
3.887560118395209
31
0.
0
LINE
8
0
10
12.294284257229538
20
3.831189881604791
30
0.
11
12.294284257229538
21
3.831189881604791
31
0.
0
LINE
8
0
10
12.294284257229538
20
3.668810118395209
30
0.
11
12.294284257229538
21
3.668810118395209
31
0.
0
LINE
8
0
10
12.32682962861477
20
3.612439881604791
30
0.
11
12.32682962861477
21
3.612439881604791
31
0.
0
LINE
8
0
10
12.46745462861477
20
3.53125
30
0.
11
12.46745462861477
21
3.53125
31
0.
0
LINE
8
0
10
12.53254537138523
20
3.53125
30
0.
11
12.53254537138523
21
3.53125
31
0.
0
LINE
8
0
10
12.67317037138523
20
3.612439881604791
30
0.
11
12.67317037138523
21
3.612439881604791
31
0.
0
LINE
8
0
10
12.705715742770462
20
3.668810118395209
30
0.
11
12.705715742770462
21
3.668810118395209
31
0.
0
LINE
8
0
10
12.705715742770462
20
3.831189881604791
30
0.
11
12.705715742770462
21
3.831189881604791
31
0.
0
LINE
8
0
10
12.53254537138523
20
5.21875
30
0.
11
12.46745462861477
21
5.21875
31
0.
0
LINE
8
0
10
12.32682962861477
20
5.137560118395209
30
0.
11
12.294284257229538
21
5.081189881604791
31
0.
0
LINE
8
0
10
12.294284257229538
20
4.918810118395209
30
0.
11
12.32682962861477
21
4.862439881604791
31
0.
0
LINE
8
0
10
12.46745462861477
20
4.78125
30
0.
11
12.53254537138523
21
4.78125
31
0.
0
LINE
8
0
10
12.705715742770462
20
5.081189881604791
30
0.
11
12.67317037138523
21
5.137560118395209
31
0.
0
LINE
8
0
10
12.67317037138523
20
4.862439881604791
30
0.
11
12.705715742770462
21
4.918810118395209
31
0.
0
LINE
8
0
10
12.67317037138523
20
5.137560118395209
30
0.
11
12.67317037138523
21
5.137560118395209
31
0.
0
LINE
8
0
10
12.53254537138523
20
5.21875
30
0.
11
12.53254537138523
21
5.21875
31
0.
0
LINE
8
0
10
12.46745462861477
20
5.21875
30
0.
11
12.46745462861477
21
5.21875
31
0.
0
LINE
8
0
10
12.32682962861477
20
5.137560118395209
30
0.
11
12.32682962861477
21
5.137560118395209
31
0.
0
LINE
8
0
10
12.294284257229538
20
5.081189881604791
30
0.
11
12.294284257229538
21
5.081189881604791
31
0.
0
LINE
8
0
10
12.294284257229538
20
4.918810118395209
30
0.
11
12.294284257229538
21
4.918810118395209
31
0.
0
LINE
8
0
10
12.32682962861477
20
4.862439881604791
30
0.
11
12.32682962861477
21
4.862439881604791
31
0.
0
LINE
8
0
10
12.46745462861477
20
4.78125
30
0.
11
12.46745462861477
21
4.78125
31
0.
0
LINE
8
0
10
12.53254537138523
20
4.78125
30
0.
11
12.53254537138523
21
4.78125
31
0.
0
LINE
8
0
10
12.67317037138523
20
4.862439881604791
30
0.
11
12.67317037138523
21
4.862439881604791
31
0.
0
LINE
8
0
10
12.705715742770462
20
4.918810118395209
30
0.
11
12.705715742770462
21
4.918810118395209
31
0.
0
LINE
8
0
10
12.705715742770462
20
5.081189881604791
30
0.
11
12.705715742770462
21
5.081189881604791
31
0.
0
LINE
8
0
10
12.53254537138523
20
6.46875
30
0.
11
12.46745462861477
21
6.46875
31
0.
0
LINE
8
0
10
12.32682962861477
20
6.387560118395209
30
0.
11
12.294284257229538
21
6.331189881604791
31
0.
0
LINE
8
0
10
12.294284257229538
20
6.168810118395209
30
0.
11
12.32682962861477
21
6.112439881604791
31
0.
0
LINE
8
0
10
12.46745462861477
20
6.03125
30
0.
11
12.53254537138523
21
6.03125
31
0.
0
LINE
8
0
10
12.705715742770462
20
6.331189881604791
30
0.
11
12.67317037138523
21
6.387560118395209
31
0.
0
LINE
8
0
10
12.67317037138523
20
6.112439881604791
30
0.
11
12.705715742770462
21
6.168810118395209
31
0.
0
LINE
8
0
10
12.67317037138523
20
6.387560118395209
30
0.
11
12.67317037138523
21
6.387560118395209
31
0.
0
LINE
8
0
10
12.53254537138523
20
6.46875
30
0.
11
12.53254537138523
21
6.46875
31
0.
0
LINE
8
0
10
12.46745462861477
20
6.46875
30
0.
11
12.46745462861477
21
6.46875
31
0.
0
LINE
8
0
10
12.32682962861477
20
6.387560118395209
30
0.
11
12.32682962861477
21
6.387560118395209
31
0.
0
LINE
8
0
10
12.294284257229538
20
6.331189881604791
30
0.
11
12.294284257229538
21
6.331189881604791
31
0.
0
LINE
8
0
10
12.294284257229538
20
6.168810118395209
30
0.
11
12.294284257229538
21
6.168810118395209
31
0.
0
LINE
8
0
10
12.32682962861477
20
6.112439881604791
30
0.
11
12.32682962861477
21
6.112439881604791
31
0.
0
LINE
8
0
10
12.46745462861477
20
6.03125
30
0.
11
12.46745462861477
21
6.03125
31
0.
0
LINE
8
0
10
12.53254537138523
20
6.03125
30
0.
11
12.53254537138523
21
6.03125
31
0.
0
LINE
8
0
10
12.67317037138523
20
6.112439881604791
30
0.
11
12.67317037138523
21
6.112439881604791
31
0.
0
LINE
8
0
10
12.705715742770462
20
6.168810118395209
30
0.
11
12.705715742770462
21
6.168810118395209
31
0.
0
LINE
8
0
10
12.705715742770462
20
6.331189881604791
30
0.
11
12.705715742770462
21
6.331189881604791
31
0.
0
LINE
8
0
10
12.53254537138523
20
7.71875
30
0.
11
12.46745462861477
21
7.71875
31
0.
0
LINE
8
0
10
12.32682962861477
20
7.637560118395209
30
0.
11
12.294284257229538
21
7.581189881604791
31
0.
0
LINE
8
0
10
12.294284257229538
20
7.418810118395209
30
0.
11
12.32682962861477
21
7.362439881604791
31
0.
0
LINE
8
0
10
12.46745462861477
20
7.28125
30
0.
11
12.53254537138523
21
7.28125
31
0.
0
LINE
8
0
10
12.705715742770462
20
7.581189881604791
30
0.
11
12.67317037138523
21
7.637560118395209
31
0.
0
LINE
8
0
10
12.67317037138523
20
7.362439881604791
30
0.
11
12.705715742770462
21
7.418810118395209
31
0.
0
LINE
8
0
10
12.67317037138523
20
7.637560118395209
30
0.
11
12.67317037138523
21
7.637560118395209
31
0.
0
LINE
8
0
10
12.53254537138523
20
7.71875
30
0.
11
12.53254537138523
21
7.71875
31
0.
0
LINE
8
0
10
12.46745462861477
20
7.71875
30
0.
11
12.46745462861477
21
7.71875
31
0.
0
LINE
8
0
10
12.32682962861477
20
7.637560118395209
30
0.
11
12.32682962861477
21
7.637560118395209
31
0.
0
LINE
8
0
10
12.294284257229538
20
7.581189881604791
30
0.
11
12.294284257229538
21
7.581189881604791
31
0.
0
LINE
8
0
10
12.294284257229538
20
7.418810118395209
30
0.
11
12.294284257229538
21
7.418810118395209
31
0.
0
LINE
8
0
10
12.32682962861477
20
7.362439881604791
30
0.
11
12.32682962861477
21
7.362439881604791
31
0.
0
LINE
8
0
10
12.46745462861477
20
7.28125
30
0.
11
12.46745462861477
21
7.28125
31
0.
0
LINE
8
0
10
12.53254537138523
20
7.28125
30
0.
11
12.53254537138523
21
7.28125
31
0.
0
LINE
8
0
10
12.67317037138523
20
7.362439881604791
30
0.
11
12.67317037138523
21
7.362439881604791
31
0.
0
LINE
8
0
10
12.705715742770462
20
7.418810118395209
30
0.
11
12.705715742770462
21
7.418810118395209
31
0.
0
LINE
8
0
10
12.705715742770462
20
7.581189881604791
30
0.
11
12.705715742770462
21
7.581189881604791
31
0.
0
LINE
8
0
10
12.53254537138523
20
8.96875
30
0.
11
12.46745462861477
21
8.96875
31
0.
0
LINE
8
0
10
12.32682962861477
20
8.887560118395209
30
0.
11
12.294284257229538
21
8.831189881604791
31
0.
0
LINE
8
0
10
12.294284257229538
20
8.668810118395209
30
0.
11
12.32682962861477
21
8.612439881604791
31
0.
0
LINE
8
0
10
12.46745462861477
20
8.53125
30
0.
11
12.53254537138523
21
8.53125
31
0.
0
LINE
8
0
10
12.705715742770462
20
8.831189881604791
30
0.
11
12.67317037138523
21
8.887560118395209
31
0.
0
LINE
8
0
10
12.67317037138523
20
8.612439881604791
30
0.
11
12.705715742770462
21
8.668810118395209
31
0.
0
LINE
8
0
10
12.67317037138523
20
8.887560118395209
30
0.
11
12.67317037138523
21
8.887560118395209
31
0.
0
LINE
8
0
10
12.53254537138523
20
8.96875
30
0.
11
12.53254537138523
21
8.96875
31
0.
0
LINE
8
0
10
12.46745462861477
20
8.96875
30
0.
11
12.46745462861477
21
8.96875
31
0.
0
LINE
8
0
10
12.32682962861477
20
8.887560118395209
30
0.
11
12.32682962861477
21
8.887560118395209
31
0.
0
LINE
8
0
10
12.294284257229538
20
8.831189881604791
30
0.
11
12.294284257229538
21
8.831189881604791
31
0.
0
LINE
8
0
10
12.294284257229538
20
8.668810118395209
30
0.
11
12.294284257229538
21
8.668810118395209
31
0.
0
LINE
8
0
10
12.32682962861477
20
8.612439881604791
30
0.
11
12.32682962861477
21
8.612439881604791
31
0.
0
LINE
8
0
10
12.46745462861477
20
8.53125
30
0.
11
12.46745462861477
21
8.53125
31
0.
0
LINE
8
0
10
12.53254537138523
20
8.53125
30
0.
11
12.53254537138523
21
8.53125
31
0.
0
LINE
8
0
10
12.67317037138523
20
8.612439881604791
30
0.
11
12.67317037138523
21
8.612439881604791
31
0.
0
LINE
8
0
10
12.705715742770462
20
8.668810118395209
30
0.
11
12.705715742770462
21
8.668810118395209
31
0.
0
LINE
8
0
10
12.705715742770462
20
8.831189881604791
30
0.
11
12.705715742770462
21
8.831189881604791
31
0.
0
LINE
8
0
10
13.78254537138523
20
1.46875
30
0.
11
13.71745462861477
21
1.46875
31
0.
0
LINE
8
0
10
13.57682962861477
20
1.3875601183952089
30
0.
11
13.544284257229538
21
1.3311898816047911
31
0.
0
LINE
8
0
10
13.544284257229538
20
1.1688101183952089
30
0.
11
13.57682962861477
21
1.1124398816047911
31
0.
0
LINE
8
0
10
13.71745462861477
20
1.03125
30
0.
11
13.78254537138523
21
1.03125
31
0.
0
LINE
8
0
10
13.955715742770462
20
1.3311898816047911
30
0.
11
13.92317037138523
21
1.3875601183952089
31
0.
0
LINE
8
0
10
13.92317037138523
20
1.1124398816047911
30
0.
11
13.955715742770462
21
1.1688101183952089
31
0.
0
LINE
8
0
10
13.92317037138523
20
1.3875601183952089
30
0.
11
13.92317037138523
21
1.3875601183952089
31
0.
0
LINE
8
0
10
13.78254537138523
20
1.46875
30
0.
11
13.78254537138523
21
1.46875
31
0.
0
LINE
8
0
10
13.71745462861477
20
1.46875
30
0.
11
13.71745462861477
21
1.46875
31
0.
0
LINE
8
0
10
13.57682962861477
20
1.3875601183952089
30
0.
11
13.57682962861477
21
1.3875601183952089
31
0.
0
LINE
8
0
10
13.544284257229538
20
1.3311898816047911
30
0.
11
13.544284257229538
21
1.3311898816047911
31
0.
0
LINE
8
0
10
13.544284257229538
20
1.1688101183952089
30
0.
11
13.544284257229538
21
1.1688101183952089
31
0.
0
LINE
8
0
10
13.57682962861477
20
1.1124398816047911
30
0.
11
13.57682962861477
21
1.1124398816047911
31
0.
0
LINE
8
0
10
13.71745462861477
20
1.03125
30
0.
11
13.71745462861477
21
1.03125
31
0.
0
LINE
8
0
10
13.78254537138523
20
1.03125
30
0.
11
13.78254537138523
21
1.03125
31
0.
0
LINE
8
0
10
13.92317037138523
20
1.1124398816047911
30
0.
11
13.92317037138523
21
1.1124398816047911
31
0.
0
LINE
8
0
10
13.955715742770462
20
1.1688101183952089
30
0.
11
13.955715742770462
21
1.1688101183952089
31
0.
0
LINE
8
0
10
13.955715742770462
20
1.3311898816047911
30
0.
11
13.955715742770462
21
1.3311898816047911
31
0.
0
LINE
8
0
10
13.78254537138523
20
2.71875
30
0.
11
13.71745462861477
21
2.71875
31
0.
0
LINE
8
0
10
13.57682962861477
20
2.637560118395209
30
0.
11
13.544284257229538
21
2.581189881604791
31
0.
0
LINE
8
0
10
13.544284257229538
20
2.418810118395209
30
0.
11
13.57682962861477
21
2.362439881604791
31
0.
0
LINE
8
0
10
13.71745462861477
20
2.28125
30
0.
11
13.78254537138523
21
2.28125
31
0.
0
LINE
8
0
10
13.955715742770462
20
2.581189881604791
30
0.
11
13.92317037138523
21
2.637560118395209
31
0.
0
LINE
8
0
10
13.92317037138523
20
2.362439881604791
30
0.
11
13.955715742770462
21
2.418810118395209
31
0.
0
LINE
8
0
10
13.92317037138523
20
2.637560118395209
30
0.
11
13.92317037138523
21
2.637560118395209
31
0.
0
LINE
8
0
10
13.78254537138523
20
2.71875
30
0.
11
13.78254537138523
21
2.71875
31
0.
0
LINE
8
0
10
13.71745462861477
20
2.71875
30
0.
11
13.71745462861477
21
2.71875
31
0.
0
LINE
8
0
10
13.57682962861477
20
2.637560118395209
30
0.
11
13.57682962861477
21
2.637560118395209
31
0.
0
LINE
8
0
10
13.544284257229538
20
2.581189881604791
30
0.
11
13.544284257229538
21
2.581189881604791
31
0.
0
LINE
8
0
10
13.544284257229538
20
2.418810118395209
30
0.
11
13.544284257229538
21
2.418810118395209
31
0.
0
LINE
8
0
10
13.57682962861477
20
2.362439881604791
30
0.
11
13.57682962861477
21
2.362439881604791
31
0.
0
LINE
8
0
10
13.71745462861477
20
2.28125
30
0.
11
13.71745462861477
21
2.28125
31
0.
0
LINE
8
0
10
13.78254537138523
20
2.28125
30
0.
11
13.78254537138523
21
2.28125
31
0.
0
LINE
8
0
10
13.92317037138523
20
2.362439881604791
30
0.
11
13.92317037138523
21
2.362439881604791
31
0.
0
LINE
8
0
10
13.955715742770462
20
2.418810118395209
30
0.
11
13.955715742770462
21
2.418810118395209
31
0.
0
LINE
8
0
10
13.955715742770462
20
2.581189881604791
30
0.
11
13.955715742770462
21
2.581189881604791
31
0.
0
LINE
8
0
10
13.78254537138523
20
3.96875
30
0.
11
13.71745462861477
21
3.96875
31
0.
0
LINE
8
0
10
13.57682962861477
20
3.887560118395209
30
0.
11
13.544284257229538
21
3.831189881604791
31
0.
0
LINE
8
0
10
13.544284257229538
20
3.668810118395209
30
0.
11
13.57682962861477
21
3.612439881604791
31
0.
0
LINE
8
0
10
13.71745462861477
20
3.53125
30
0.
11
13.78254537138523
21
3.53125
31
0.
0
LINE
8
0
10
13.955715742770462
20
3.831189881604791
30
0.
11
13.92317037138523
21
3.887560118395209
31
0.
0
LINE
8
0
10
13.92317037138523
20
3.612439881604791
30
0.
11
13.955715742770462
21
3.668810118395209
31
0.
0
LINE
8
0
10
13.92317037138523
20
3.887560118395209
30
0.
11
13.92317037138523
21
3.887560118395209
31
0.
0
LINE
8
0
10
13.78254537138523
20
3.96875
30
0.
11
13.78254537138523
21
3.96875
31
0.
0
LINE
8
0
10
13.71745462861477
20
3.96875
30
0.
11
13.71745462861477
21
3.96875
31
0.
0
LINE
8
0
10
13.57682962861477
20
3.887560118395209
30
0.
11
13.57682962861477
21
3.887560118395209
31
0.
0
LINE
8
0
10
13.544284257229538
20
3.831189881604791
30
0.
11
13.544284257229538
21
3.831189881604791
31
0.
0
LINE
8
0
10
13.544284257229538
20
3.668810118395209
30
0.
11
13.544284257229538
21
3.668810118395209
31
0.
0
LINE
8
0
10
13.57682962861477
20
3.612439881604791
30
0.
11
13.57682962861477
21
3.612439881604791
31
0.
0
LINE
8
0
10
13.71745462861477
20
3.53125
30
0.
11
13.71745462861477
21
3.53125
31
0.
0
LINE
8
0
10
13.78254537138523
20
3.53125
30
0.
11
13.78254537138523
21
3.53125
31
0.
0
LINE
8
0
10
13.92317037138523
20
3.612439881604791
30
0.
11
13.92317037138523
21
3.612439881604791
31
0.
0
LINE
8
0
10
13.955715742770462
20
3.668810118395209
30
0.
11
13.955715742770462
21
3.668810118395209
31
0.
0
LINE
8
0
10
13.955715742770462
20
3.831189881604791
30
0.
11
13.955715742770462
21
3.831189881604791
31
0.
0
LINE
8
0
10
13.78254537138523
20
5.21875
30
0.
11
13.71745462861477
21
5.21875
31
0.
0
LINE
8
0
10
13.57682962861477
20
5.137560118395209
30
0.
11
13.544284257229538
21
5.081189881604791
31
0.
0
LINE
8
0
10
13.544284257229538
20
4.918810118395209
30
0.
11
13.57682962861477
21
4.862439881604791
31
0.
0
LINE
8
0
10
13.71745462861477
20
4.78125
30
0.
11
13.78254537138523
21
4.78125
31
0.
0
LINE
8
0
10
13.955715742770462
20
5.081189881604791
30
0.
11
13.92317037138523
21
5.137560118395209
31
0.
0
LINE
8
0
10
13.92317037138523
20
4.862439881604791
30
0.
11
13.955715742770462
21
4.918810118395209
31
0.
0
LINE
8
0
10
13.92317037138523
20
5.137560118395209
30
0.
11
13.92317037138523
21
5.137560118395209
31
0.
0
LINE
8
0
10
13.78254537138523
20
5.21875
30
0.
11
13.78254537138523
21
5.21875
31
0.
0
LINE
8
0
10
13.71745462861477
20
5.21875
30
0.
11
13.71745462861477
21
5.21875
31
0.
0
LINE
8
0
10
13.57682962861477
20
5.137560118395209
30
0.
11
13.57682962861477
21
5.137560118395209
31
0.
0
LINE
8
0
10
13.544284257229538
20
5.081189881604791
30
0.
11
13.544284257229538
21
5.081189881604791
31
0.
0
LINE
8
0
10
13.544284257229538
20
4.918810118395209
30
0.
11
13.544284257229538
21
4.918810118395209
31
0.
0
LINE
8
0
10
13.57682962861477
20
4.862439881604791
30
0.
11
13.57682962861477
21
4.862439881604791
31
0.
0
LINE
8
0
10
13.71745462861477
20
4.78125
30
0.
11
13.71745462861477
21
4.78125
31
0.
0
LINE
8
0
10
13.78254537138523
20
4.78125
30
0.
11
13.78254537138523
21
4.78125
31
0.
0
LINE
8
0
10
13.92317037138523
20
4.862439881604791
30
0.
11
13.92317037138523
21
4.862439881604791
31
0.
0
LINE
8
0
10
13.955715742770462
20
4.918810118395209
30
0.
11
13.955715742770462
21
4.918810118395209
31
0.
0
LINE
8
0
10
13.955715742770462
20
5.081189881604791
30
0.
11
13.955715742770462
21
5.081189881604791
31
0.
0
LINE
8
0
10
13.78254537138523
20
6.46875
30
0.
11
13.71745462861477
21
6.46875
31
0.
0
LINE
8
0
10
13.57682962861477
20
6.387560118395209
30
0.
11
13.544284257229538
21
6.331189881604791
31
0.
0
LINE
8
0
10
13.544284257229538
20
6.168810118395209
30
0.
11
13.57682962861477
21
6.112439881604791
31
0.
0
LINE
8
0
10
13.71745462861477
20
6.03125
30
0.
11
13.78254537138523
21
6.03125
31
0.
0
LINE
8
0
10
13.955715742770462
20
6.331189881604791
30
0.
11
13.92317037138523
21
6.387560118395209
31
0.
0
LINE
8
0
10
13.92317037138523
20
6.112439881604791
30
0.
11
13.955715742770462
21
6.168810118395209
31
0.
0
LINE
8
0
10
13.92317037138523
20
6.387560118395209
30
0.
11
13.92317037138523
21
6.387560118395209
31
0.
0
LINE
8
0
10
13.78254537138523
20
6.46875
30
0.
11
13.78254537138523
21
6.46875
31
0.
0
LINE
8
0
10
13.71745462861477
20
6.46875
30
0.
11
13.71745462861477
21
6.46875
31
0.
0
LINE
8
0
10
13.57682962861477
20
6.387560118395209
30
0.
11
13.57682962861477
21
6.387560118395209
31
0.
0
LINE
8
0
10
13.544284257229538
20
6.331189881604791
30
0.
11
13.544284257229538
21
6.331189881604791
31
0.
0
LINE
8
0
10
13.544284257229538
20
6.168810118395209
30
0.
11
13.544284257229538
21
6.168810118395209
31
0.
0
LINE
8
0
10
13.57682962861477
20
6.112439881604791
30
0.
11
13.57682962861477
21
6.112439881604791
31
0.
0
LINE
8
0
10
13.71745462861477
20
6.03125
30
0.
11
13.71745462861477
21
6.03125
31
0.
0
LINE
8
0
10
13.78254537138523
20
6.03125
30
0.
11
13.78254537138523
21
6.03125
31
0.
0
LINE
8
0
10
13.92317037138523
20
6.112439881604791
30
0.
11
13.92317037138523
21
6.112439881604791
31
0.
0
LINE
8
0
10
13.955715742770462
20
6.168810118395209
30
0.
11
13.955715742770462
21
6.168810118395209
31
0.
0
LINE
8
0
10
13.955715742770462
20
6.331189881604791
30
0.
11
13.955715742770462
21
6.331189881604791
31
0.
0
LINE
8
0
10
13.78254537138523
20
7.71875
30
0.
11
13.71745462861477
21
7.71875
31
0.
0
LINE
8
0
10
13.57682962861477
20
7.637560118395209
30
0.
11
13.544284257229538
21
7.581189881604791
31
0.
0
LINE
8
0
10
13.544284257229538
20
7.418810118395209
30
0.
11
13.57682962861477
21
7.362439881604791
31
0.
0
LINE
8
0
10
13.71745462861477
20
7.28125
30
0.
11
13.78254537138523
21
7.28125
31
0.
0
LINE
8
0
10
13.955715742770462
20
7.581189881604791
30
0.
11
13.92317037138523
21
7.637560118395209
31
0.
0
LINE
8
0
10
13.92317037138523
20
7.362439881604791
30
0.
11
13.955715742770462
21
7.418810118395209
31
0.
0
LINE
8
0
10
13.92317037138523
20
7.637560118395209
30
0.
11
13.92317037138523
21
7.637560118395209
31
0.
0
LINE
8
0
10
13.78254537138523
20
7.71875
30
0.
11
13.78254537138523
21
7.71875
31
0.
0
LINE
8
0
10
13.71745462861477
20
7.71875
30
0.
11
13.71745462861477
21
7.71875
31
0.
0
LINE
8
0
10
13.57682962861477
20
7.637560118395209
30
0.
11
13.57682962861477
21
7.637560118395209
31
0.
0
LINE
8
0
10
13.544284257229538
20
7.581189881604791
30
0.
11
13.544284257229538
21
7.581189881604791
31
0.
0
LINE
8
0
10
13.544284257229538
20
7.418810118395209
30
0.
11
13.544284257229538
21
7.418810118395209
31
0.
0
LINE
8
0
10
13.57682962861477
20
7.362439881604791
30
0.
11
13.57682962861477
21
7.362439881604791
31
0.
0
LINE
8
0
10
13.71745462861477
20
7.28125
30
0.
11
13.71745462861477
21
7.28125
31
0.
0
LINE
8
0
10
13.78254537138523
20
7.28125
30
0.
11
13.78254537138523
21
7.28125
31
0.
0
LINE
8
0
10
13.92317037138523
20
7.362439881604791
30
0.
11
13.92317037138523
21
7.362439881604791
31
0.
0
LINE
8
0
10
13.955715742770462
20
7.418810118395209
30
0.
11
13.955715742770462
21
7.418810118395209
31
0.
0
LINE
8
0
10
13.955715742770462
20
7.581189881604791
30
0.
11
13.955715742770462
21
7.581189881604791
31
0.
0
LINE
8
0
10
13.78254537138523
20
8.96875
30
0.
11
13.71745462861477
21
8.96875
31
0.
0
LINE
8
0
10
13.57682962861477
20
8.887560118395209
30
0.
11
13.544284257229538
21
8.831189881604791
31
0.
0
LINE
8
0
10
13.544284257229538
20
8.668810118395209
30
0.
11
13.57682962861477
21
8.612439881604791
31
0.
0
LINE
8
0
10
13.71745462861477
20
8.53125
30
0.
11
13.78254537138523
21
8.53125
31
0.
0
LINE
8
0
10
13.955715742770462
20
8.831189881604791
30
0.
11
13.92317037138523
21
8.887560118395209
31
0.
0
LINE
8
0
10
13.92317037138523
20
8.612439881604791
30
0.
11
13.955715742770462
21
8.668810118395209
31
0.
0
LINE
8
0
10
13.92317037138523
20
8.887560118395209
30
0.
11
13.92317037138523
21
8.887560118395209
31
0.
0
LINE
8
0
10
13.78254537138523
20
8.96875
30
0.
11
13.78254537138523
21
8.96875
31
0.
0
LINE
8
0
10
13.71745462861477
20
8.96875
30
0.
11
13.71745462861477
21
8.96875
31
0.
0
LINE
8
0
10
13.57682962861477
20
8.887560118395209
30
0.
11
13.57682962861477
21
8.887560118395209
31
0.
0
LINE
8
0
10
13.544284257229538
20
8.831189881604791
30
0.
11
13.544284257229538
21
8.831189881604791
31
0.
0
LINE
8
0
10
13.544284257229538
20
8.668810118395209
30
0.
11
13.544284257229538
21
8.668810118395209
31
0.
0
LINE
8
0
10
13.57682962861477
20
8.612439881604791
30
0.
11
13.57682962861477
21
8.612439881604791
31
0.
0
LINE
8
0
10
13.71745462861477
20
8.53125
30
0.
11
13.71745462861477
21
8.53125
31
0.
0
LINE
8
0
10
13.78254537138523
20
8.53125
30
0.
11
13.78254537138523
21
8.53125
31
0.
0
LINE
8
0
10
13.92317037138523
20
8.612439881604791
30
0.
11
13.92317037138523
21
8.612439881604791
31
0.
0
LINE
8
0
10
13.955715742770462
20
8.668810118395209
30
0.
11
13.955715742770462
21
8.668810118395209
31
0.
0
LINE
8
0
10
13.955715742770462
20
8.831189881604791
30
0.
11
13.955715742770462
21
8.831189881604791
31
0.
0
ENDSEC
0
EOF
